<svg width="688" height="501" viewBox="0 0 688 501" fill="none" xmlns="http://www.w3.org/2000/svg">
<mask id="path-1-inside-1_2158_34609" fill="white">
<path d="M0.0763049 130.744C-0.794407 111.221 5.68214 104.894 26.1481 104.867C102.564 104.768 183.274 103.723 259.691 103.854C267.563 103.868 265.063 104.333 270.611 97.4085C275.629 91.1456 286.449 86.3306 299.534 86.5223C281.818 69.072 261.641 47.1111 242.363 28.5564C237.15 23.5372 230.577 19.8647 225.199 14.9824C222.677 12.6936 220.522 9.11105 220.126 5.89102C219.912 4.16387 223.887 0.243757 225.78 0.356397C229.13 0.556255 233.144 2.33973 235.473 4.74428C261.877 32.013 288.014 59.5254 316.067 88.9026C344.493 58.873 370.871 30.9101 397.459 3.1372C399.251 1.26651 402.835 -0.326876 405.224 0.0579785C407.646 0.448308 411.138 3.26705 411.414 5.36302C411.778 8.13092 410.312 12.1019 408.177 14.0531C382.654 37.3748 356.859 60.4171 331.499 85.2915C346.153 85.6282 357.182 89.1889 362.919 102.702C363.761 104.683 370.949 104.656 375.202 104.663C452.059 104.784 528.918 104.736 605.775 104.804C625.706 104.822 632.583 111.467 632.08 130.744H0.075902H0.0763049Z"/>
</mask>
<path d="M0.0763049 130.744C-0.794407 111.221 5.68214 104.894 26.1481 104.867C102.564 104.768 183.274 103.723 259.691 103.854C267.563 103.868 265.063 104.333 270.611 97.4085C275.629 91.1456 286.449 86.3306 299.534 86.5223C281.818 69.072 261.641 47.1111 242.363 28.5564C237.15 23.5372 230.577 19.8647 225.199 14.9824C222.677 12.6936 220.522 9.11105 220.126 5.89102C219.912 4.16387 223.887 0.243757 225.78 0.356397C229.13 0.556255 233.144 2.33973 235.473 4.74428C261.877 32.013 288.014 59.5254 316.067 88.9026C344.493 58.873 370.871 30.9101 397.459 3.1372C399.251 1.26651 402.835 -0.326876 405.224 0.0579785C407.646 0.448308 411.138 3.26705 411.414 5.36302C411.778 8.13092 410.312 12.1019 408.177 14.0531C382.654 37.3748 356.859 60.4171 331.499 85.2915C346.153 85.6282 357.182 89.1889 362.919 102.702C363.761 104.683 370.949 104.656 375.202 104.663C452.059 104.784 528.918 104.736 605.775 104.804C625.706 104.822 632.583 111.467 632.08 130.744H0.075902H0.0763049Z" fill="#03A9F4"/>
<path d="M0.0763049 130.744V130.781H0.115013L0.113288 130.742L0.0763049 130.744ZM26.1481 104.867L26.148 104.83L26.148 104.83L26.1481 104.867ZM259.691 103.854L259.691 103.817L259.691 103.817L259.691 103.854ZM270.611 97.4085L270.582 97.3854L270.582 97.3854L270.611 97.4085ZM299.534 86.5223L299.534 86.5593L299.626 86.5607L299.56 86.4959L299.534 86.5223ZM242.363 28.5564L242.338 28.583L242.338 28.583L242.363 28.5564ZM225.199 14.9824L225.224 14.955L225.224 14.955L225.199 14.9824ZM220.126 5.89102L220.163 5.8865L220.163 5.88648L220.126 5.89102ZM225.78 0.356397L225.782 0.319443L225.782 0.319442L225.78 0.356397ZM235.473 4.74428L235.5 4.71853L235.5 4.71853L235.473 4.74428ZM316.067 88.9026L316.04 88.9282L316.067 88.9563L316.094 88.928L316.067 88.9026ZM397.459 3.1372L397.433 3.11159L397.433 3.1116L397.459 3.1372ZM405.224 0.0579785L405.23 0.02143L405.23 0.0214293L405.224 0.0579785ZM411.414 5.36302L411.377 5.36785L411.377 5.36786L411.414 5.36302ZM408.177 14.0531L408.202 14.0805L408.202 14.0805L408.177 14.0531ZM331.499 85.2915L331.473 85.265L331.41 85.3264L331.498 85.3285L331.499 85.2915ZM362.919 102.702L362.885 102.717L362.885 102.717L362.919 102.702ZM375.202 104.663L375.202 104.7L375.202 104.7L375.202 104.663ZM605.775 104.804L605.775 104.767L605.775 104.767L605.775 104.804ZM632.08 130.744V130.781H632.116L632.117 130.745L632.08 130.744ZM0.113288 130.742C-0.32198 120.983 1.0803 114.535 5.13699 110.521C9.19431 106.506 15.9164 104.917 26.1481 104.904L26.148 104.83C15.9138 104.843 9.16468 106.431 5.08491 110.468C1.00451 114.505 -0.396122 120.982 0.0393216 130.745L0.113288 130.742ZM26.1481 104.904C102.566 104.805 183.274 103.76 259.691 103.891L259.691 103.817C183.275 103.686 102.563 104.731 26.148 104.83L26.1481 104.904ZM259.691 103.891C261.657 103.895 262.979 103.927 263.94 103.864C264.903 103.801 265.51 103.643 266.044 103.264C266.576 102.886 267.033 102.29 267.701 101.361C268.37 100.43 269.253 99.1619 270.639 97.4316L270.582 97.3854C269.194 99.1174 268.309 100.388 267.641 101.317C266.971 102.248 266.521 102.834 266.001 103.203C265.483 103.571 264.892 103.728 263.936 103.79C262.978 103.853 261.66 103.821 259.691 103.817L259.691 103.891ZM270.639 97.4316C275.648 91.1803 286.456 86.3678 299.534 86.5593L299.535 86.4853C286.442 86.2935 275.609 91.111 270.582 97.3854L270.639 97.4316ZM299.56 86.4959C290.702 77.7712 281.229 67.9188 271.561 57.9278C261.892 47.9369 252.028 37.8076 242.389 28.5297L242.338 28.583C251.976 37.8599 261.839 47.9884 271.508 57.9793C281.176 67.9699 290.65 77.8231 299.508 86.5487L299.56 86.4959ZM242.389 28.5297C239.78 26.0181 236.832 23.8438 233.865 21.6881C230.897 19.5319 227.911 17.3945 225.224 14.955L225.174 15.0098C227.865 17.4526 230.854 19.5926 233.821 21.748C236.788 23.9039 239.733 26.0755 242.338 28.583L242.389 28.5297ZM225.224 14.955C222.706 12.6707 220.557 9.09574 220.163 5.8865L220.089 5.89554C220.486 9.12636 222.647 12.7166 225.174 15.0098L225.224 14.955ZM220.163 5.88648C220.111 5.46789 220.313 4.90839 220.685 4.30107C221.055 3.69562 221.589 3.04955 222.189 2.4602C222.789 1.87088 223.454 1.33942 224.087 0.962583C224.72 0.584896 225.316 0.365874 225.777 0.393352L225.782 0.319442C225.297 0.290599 224.686 0.519352 224.049 0.89898C223.41 1.27946 222.74 1.81485 222.137 2.40737C221.534 2.99987 220.996 3.65063 220.621 4.26244C220.248 4.87238 220.034 5.45058 220.089 5.89557L220.163 5.88648ZM225.777 0.393351C229.119 0.592682 233.124 2.37241 235.446 4.77004L235.5 4.71853C233.164 2.30704 229.141 0.519828 225.782 0.319443L225.777 0.393351ZM235.446 4.77003C261.851 32.0386 287.987 59.5509 316.04 88.9282L316.094 88.877C288.041 59.4999 261.904 31.9874 235.5 4.71853L235.446 4.77003ZM316.094 88.928C344.52 58.8984 370.898 30.9356 397.486 3.1628L397.433 3.1116C370.844 30.8846 344.466 58.8476 316.04 88.8771L316.094 88.928ZM397.486 3.16281C398.378 2.23196 399.717 1.36856 401.132 0.785994C402.547 0.203211 404.033 -0.0963724 405.218 0.0945277L405.23 0.0214293C404.026 -0.172525 402.525 0.13216 401.104 0.71753C399.681 1.30312 398.333 2.17176 397.433 3.11159L397.486 3.16281ZM405.218 0.094527C406.42 0.288236 407.893 1.08614 409.1 2.09924C409.703 2.60542 410.239 3.16422 410.641 3.72629C411.043 4.28878 411.309 4.85219 411.377 5.36785L411.45 5.3582C411.38 4.82587 411.107 4.25095 410.701 3.68323C410.295 3.1151 409.755 2.55182 409.148 2.04253C407.935 1.02468 406.45 0.21805 405.23 0.02143L405.218 0.094527ZM411.377 5.36786C411.558 6.74408 411.285 8.42253 410.698 10.0014C410.112 11.5803 409.214 13.0552 408.152 14.0258L408.202 14.0805C409.275 13.0998 410.178 11.6137 410.768 10.0272C411.357 8.44084 411.634 6.74986 411.45 5.35819L411.377 5.36786ZM408.152 14.0258C382.63 37.3471 356.834 60.3901 331.473 85.265L331.525 85.3179C356.885 60.4442 382.679 37.4025 408.202 14.0805L408.152 14.0258ZM331.498 85.3285C338.823 85.4968 345.237 86.4709 350.536 89.0888C355.834 91.7061 360.02 95.9676 362.885 102.717L362.953 102.688C360.081 95.9234 355.884 91.648 350.569 89.0224C345.256 86.3975 338.829 85.4229 331.5 85.2544L331.498 85.3285ZM362.885 102.717C362.994 102.973 363.205 103.194 363.494 103.386C363.783 103.577 364.153 103.74 364.584 103.878C365.447 104.156 366.56 104.339 367.778 104.459C370.214 104.701 373.076 104.697 375.202 104.7L375.202 104.626C373.075 104.622 370.217 104.627 367.785 104.386C366.569 104.265 365.462 104.083 364.607 103.808C364.179 103.67 363.816 103.51 363.535 103.324C363.253 103.138 363.055 102.926 362.953 102.688L362.885 102.717ZM375.202 104.7C452.059 104.821 528.918 104.773 605.775 104.841L605.775 104.767C528.918 104.699 452.06 104.747 375.202 104.626L375.202 104.7ZM605.775 104.841C615.739 104.85 622.428 106.516 626.564 110.578C630.701 114.64 632.294 121.107 632.043 130.743L632.117 130.745C632.369 121.104 630.775 114.61 626.616 110.525C622.458 106.441 615.743 104.776 605.775 104.767L605.775 104.841ZM632.08 130.707H0.075902V130.781H632.08V130.707ZM0.075902 130.781H0.0763049V130.707H0.075902V130.781Z" fill="#111B33" mask="url(#path-1-inside-1_2158_34609)"/>
<path d="M79.6206 293.022L79.6182 293.02L79.6156 293.031C78.5961 297.395 77.5895 301.762 76.583 306.128C74.0335 317.188 71.484 328.248 68.7247 339.259C68.439 340.399 68.2704 341.63 68.1008 342.869C68.059 343.174 68.0172 343.479 67.9735 343.784C67.7525 345.327 67.4847 346.849 66.9417 348.192C66.3988 349.535 65.5812 350.698 64.2607 351.523C62.94 352.348 61.1146 352.837 58.5541 352.827C53.6837 352.807 49.6058 351.687 46.429 349.49C43.2524 347.293 40.9752 344.017 39.7078 339.682C37.2198 331.168 35.2555 322.511 33.2909 313.852C32.4081 309.961 31.5253 306.07 30.5948 302.192C29.8122 298.936 28.9332 295.698 25.6933 292.59L25.662 292.56V292.603C25.662 298.018 25.6622 303.434 25.6624 308.849C25.6627 319.68 25.6631 330.51 25.662 341.339C25.6615 343.553 25.6574 345.769 25.6534 347.984C25.6355 357.782 25.6176 367.589 25.9042 377.325C26.0069 380.83 25.9363 383.571 25.5426 385.72C25.1489 387.869 24.4324 389.425 23.2444 390.562C22.0563 391.7 20.3945 392.42 18.1062 392.894C15.818 393.368 12.9054 393.595 9.217 393.747C8.11314 393.679 6.9134 393.713 5.60985 393.75C5.45864 393.754 5.30602 393.759 5.152 393.763C3.67439 393.804 2.06634 393.834 0.315019 393.717V160.292C5.85886 159.304 10.1658 158.657 13.5766 158.56C16.9906 158.463 19.5045 158.918 21.4617 160.133C23.4187 161.348 24.8218 163.324 26.0105 166.277C27.1993 169.229 28.1728 173.156 29.2718 178.27C29.4164 178.943 29.5611 179.616 29.7057 180.289C37.5725 216.893 45.4423 253.512 55.3962 290.53L55.4321 290.529C56.1442 287.307 56.869 284.088 57.5938 280.868C59.1905 273.776 60.7871 266.684 62.2484 259.566C65.87 241.931 69.4336 224.286 72.9972 206.641C74.8625 197.405 76.7277 188.169 78.6013 178.935C79.6721 173.657 80.538 169.658 81.6089 166.67C82.6797 163.681 83.9545 161.706 85.8411 160.473C87.7282 159.24 90.2302 158.748 93.7599 158.733C97.2864 158.719 101.836 159.181 107.818 159.853V392.12C106.813 392.261 105.867 392.416 104.96 392.565C103.11 392.869 101.42 393.146 99.7204 393.218C95.3023 393.403 91.9945 393.539 89.5178 393.377C87.0408 393.215 85.3995 392.755 84.3108 391.749C83.2223 390.744 82.6826 389.19 82.4181 386.832C82.1577 384.51 82.1642 381.413 82.1728 377.3L82.1732 377.105C82.2141 357.22 82.2053 337.336 82.1966 317.453C82.193 309.114 82.1893 300.775 82.1893 292.437V292.413L82.1666 292.419C81.5282 292.568 80.8908 292.719 80.2529 292.87C80.0453 292.919 79.8376 292.968 79.6298 293.017L79.629 293.014L79.621 293.022L79.6206 293.022Z" fill="#03A9F4" stroke="#111B33" stroke-width="0.0370201"/>
<path d="M3.78956 437.161C0.462604 432.888 -0.491643 426.368 0.521945 416.844H0.535358H0.565396H0.595416H0.625418H0.655402H0.685367H0.715315H0.745244H0.775155H0.805049H0.834924H0.864782H0.894622H0.924443H0.954248H0.984034H1.0138H1.04355H1.07329H1.103H1.1327H1.16238H1.19204H1.22169H1.25132H1.28093H1.31052H1.3401H1.36966H1.3992H1.42872H1.45823H1.48772H1.51719H1.54665H1.57609H1.60551H1.63491H1.6643H1.69367H1.72302H1.75236H1.78168H1.81099H1.84027H1.86954H1.8988H1.92803H1.95725H1.98646H2.01564H2.04481H2.07397H2.10311H2.13223H2.16133H2.19042H2.2195H2.24855H2.27759H2.30662H2.33562H2.36462H2.39359H2.42255H2.4515H2.48042H2.50934H2.53823H2.56711H2.59598H2.62483H2.65366H2.68248H2.71128H2.74007H2.76884H2.79759H2.82633H2.85505H2.88376H2.91246H2.94113H2.9698H2.99844H3.02708H3.05569H3.08429H3.11288H3.14145H3.17001H3.19855H3.22708H3.25559H3.28408H3.31257H3.34103H3.36948H3.39792H3.42634H3.45475H3.48314H3.51152H3.53989H3.56823H3.59657H3.62489H3.65319H3.68149H3.70976H3.73802H3.76627H3.79451H3.82273H3.85093H3.87912H3.9073H3.93546H3.96361H3.99175H4.01987H4.04797H4.07607H4.10414H4.13221H4.16026H4.1883H4.21632H4.24433H4.27233H4.30031H4.32828H4.35624H4.38418H4.41211H4.44002H4.46792H4.49581H4.52368H4.55155H4.57939H4.60723H4.63505H4.66286H4.69065H4.71844H4.74621H4.77396H4.80171H4.82944H4.85715H4.88486H4.91255H4.94023H4.96789H4.99555H5.02319H5.05082H5.07843H5.10603H5.13362H5.1612H5.18877H5.21632H5.24386H5.27139H5.2989H5.3264H5.35389H5.38137H5.40884H5.43629H5.46374H5.49116H5.51858H5.54599H5.57338H5.60076H5.62813H5.65549H5.68284H5.71017H5.73749H5.7648H5.7921H5.81939H5.84667H5.87393H5.90118H5.92842H5.95565H5.98287H6.01008H6.03727H6.06446H6.09163H6.11879H6.14594H6.17308H6.20021H6.22732H6.25443H6.28152H6.30861H6.33568H6.36274H6.38979H6.41683H6.44386H6.47088H6.49788H6.52488H6.55187H6.57884H6.60581H6.63276H6.6597H6.68664H6.71356H6.74047H6.76737H6.79426H6.82114H6.84801H6.87487H6.90172H6.92856H6.95539H6.98221H7.00902H7.03582H7.06261H7.08939H7.11615H7.14291H7.16966H7.1964H7.22313H7.24985H7.27656H7.30326H7.32995H7.35663H7.3833H7.40997H7.43662H7.46326H7.48989H7.51652H7.54313H7.56974H7.59633H7.62292H7.6495H7.67607H7.70263H7.72918H7.75572H7.78225H7.80877H7.83528H7.86179H7.88828H7.91477H7.94125H7.96772H7.99418H8.02063H8.04707H8.07351H8.09993H8.12635H8.15276H8.17916H8.20555H8.23193H8.25831H8.28468H8.31103H8.33738H8.36372H8.39006H8.41638H8.4427H8.46901H8.49531H8.5216H8.54788H8.57416H8.60043H8.62669H8.65294H8.67919H8.70543H8.73165H8.75788H8.78409H8.8103H8.83649H8.86269H8.88887H8.91504H8.94121H8.96737H8.99353H9.01967H9.04581H9.07194H9.09807H9.12418H9.15029H9.1764H9.20249H9.22858H9.25466H9.28074H9.3068H9.33286H9.35892H9.38496H9.411H9.43704H9.46306H9.48908H9.51509H9.5411H9.5671H9.59309H9.61908H9.64506H9.67103H9.697H9.72296H9.74891H9.77486H9.8008H9.82674H9.85266H9.87859H9.9045H9.93042H9.95632H9.98222H10.0081H10.034H10.0599H10.0857H10.1116H10.1375H10.1633H10.1892H10.215H10.2409H10.2667H10.2925H10.3184H10.3442H10.37H10.3958H10.4216H10.4474H10.4732H10.499H10.5247H10.5505H10.5763H10.602H10.6278H10.6536H10.6793H10.7051H10.7308H10.7565H10.7823H10.808H10.8337H10.8594H10.8851H10.9108H10.9365H10.9622H10.9879H11.0136H11.0393H11.0649H11.0906H11.1163H11.1419H11.1676H11.1933H11.2189H11.2446H11.2702H11.2958H11.3215H11.3471H11.3727H11.3983H11.424H11.4496H11.4752H11.5008H11.5264H11.552H11.5776H11.6032H11.6287H11.6543H11.6799H11.7055H11.731H11.7566H11.7822H11.8077H11.8333H11.8588H11.8844H11.9099H11.9355H11.961H11.9866H12.0121H12.0376H12.0631H12.0887H12.1142H12.1397H12.1652H12.1907H12.2162H12.2417H12.2672H12.2927H12.3182H12.3437H12.3692H12.3947H12.4202H12.4457H12.4712H12.4966H12.5221H12.5476H12.5731H12.5985H12.624H12.6495H12.6749H12.7004H12.7258H12.7513H12.7767H12.8022H12.8276H12.8531H12.8785H12.904H12.9294H12.9549H12.9803H13.0057H13.0312H13.0566H13.082H13.1075H13.1329H13.1583H13.1837H13.2091H13.2346H13.26H13.2854H13.3108H13.3362H13.3616H13.3871H13.4125H13.4379H13.4633H13.4887H13.5141H13.5395H13.5649H13.5903H13.6157H13.6411H13.6665H13.6919H13.7173H13.7427H13.7681H13.7935H13.8189H13.8443H13.8697H13.8951H13.9205H13.9459H13.9712H13.9966H14.022H14.0474H14.0728H14.0982H14.1236H14.149H14.1744H14.1998H14.2251H14.2505H14.2759H14.3013C38.9918 416.842 63.6823 416.84 88.3728 416.837C264.176 416.819 439.98 416.8 615.783 417.039C617.088 417.04 618.585 416.782 620.138 416.515C620.3 416.487 620.463 416.458 620.626 416.431C622.353 416.136 624.129 415.861 625.773 415.943C627.417 416.024 628.927 416.461 630.122 417.588C631.317 418.715 632.2 420.534 632.585 423.384C633.84 432.691 626.419 441.498 616.097 443.184C611.777 443.89 607.326 444.086 602.932 444.087C412.596 444.147 222.259 444.162 31.923 444.173C31.3406 444.173 30.758 444.175 30.1753 444.176C27.2238 444.184 24.2702 444.191 21.3306 444.006C12.8255 443.469 7.11808 441.437 3.78956 437.161Z" fill="#03A9F4" stroke="#111B33" stroke-width="0.0370201"/>
<path d="M567.932 393.537C564.273 393.468 559.393 392.88 552.886 392.094V160.511C558.376 159.364 562.787 158.674 566.386 158.606C569.988 158.538 572.774 159.093 575.012 160.433C577.251 161.774 578.944 163.902 580.356 166.983C581.769 170.065 582.902 174.101 584.019 179.255C584.693 182.367 585.366 185.479 586.038 188.592C592.291 217.54 598.547 246.505 606.58 275.285L606.617 275.28V159.381H632.764V159.39V159.418V159.447V159.475V159.503V159.531V159.559V159.587V159.615V159.644V159.672V159.7V159.728V159.756V159.784V159.812V159.84V159.868V159.896V159.924V159.952V159.981V160.009V160.037V160.065V160.093V160.121V160.149V160.177V160.205V160.233V160.261V160.289V160.317V160.345V160.373V160.401V160.428V160.456V160.484V160.512V160.54V160.568V160.596V160.624V160.652V160.68V160.708V160.736V160.763V160.791V160.819V160.847V160.875V160.903V160.931V160.958V160.986V161.014V161.042V161.07V161.098V161.125V161.153V161.181V161.209V161.237V161.264V161.292V161.32V161.348V161.375V161.403V161.431V161.459V161.486V161.514V161.542V161.57V161.597V161.625V161.653V161.68V161.708V161.736V161.764V161.791V161.819V161.847V161.874V161.902V161.93V161.957V161.985V162.012V162.04V162.068V162.095V162.123V162.151V162.178V162.206V162.233V162.261V162.289V162.316V162.344V162.371V162.399V162.426V162.454V162.482V162.509V162.537V162.564V162.592V162.619V162.647V162.674V162.702V162.729V162.757V162.784V162.812V162.839V162.867V162.894V162.922V162.949V162.977V163.004V163.032V163.059V163.087V163.114V163.141V163.169V163.196V163.224V163.251V163.279V163.306V163.333V163.361V163.388V163.416V163.443V163.47V163.498V163.525V163.552V163.58V163.607V163.635V163.662V163.689V163.717V163.744V163.771V163.799V163.826V163.853V163.881V163.908V163.935V163.963V163.99V164.017V164.044V164.072V164.099V164.126V164.154V164.181V164.208V164.235V164.263V164.29V164.317V164.344V164.372V164.399V164.426V164.453V164.481V164.508V164.535V164.562V164.589V164.617V164.644V164.671V164.698V164.725V164.753V164.78V164.807V164.834V164.861V164.888V164.916V164.943V164.97V164.997V165.024V165.051V165.079V165.106V165.133V165.16V165.187V165.214V165.241V165.268V165.296V165.323V165.35V165.377V165.404V165.431V165.458V165.485V165.512V165.539V165.566V165.594V165.621V165.648V165.675V165.702V165.729V165.756V165.783V165.81V165.837V165.864V165.891V165.918V165.945V165.972V165.999V166.026V166.053V166.08V166.107V166.134V166.161V166.188V166.215V166.242V166.269V166.296V166.323V166.35V166.377V166.404V166.431V166.458V166.485V166.512V166.539V166.566V166.593V166.62V166.647V166.674V166.701V166.728V166.755V166.781V166.808V166.835V166.862V166.889V166.916V166.943V166.97V166.997V167.024V167.051V167.078V167.104V167.131V167.158V167.185V167.212V167.239V167.266V167.293V167.319V167.346V167.373V167.4V167.427V167.454V167.481V167.508V167.534V167.561V167.588V167.615V167.642V167.669V167.695V167.722V167.749V167.776V167.803V167.83V167.856V167.883V167.91V167.937V167.964V167.99V168.017V168.044V168.071V168.098V168.124V168.151V168.178V168.205V168.232V168.258V168.285V168.312V168.339V168.366V168.392V168.419V168.446V168.473V168.499V168.526V168.553V168.58V168.606V168.633V168.66V168.687V168.713V168.74V168.767V168.794V168.82V168.847V168.874V168.901V168.927V168.954V168.981V169.008V169.034V169.061V169.088V169.114V169.141V169.168V169.195V169.221V169.248V169.275V169.301V169.328V169.355V169.382V169.408V169.435V169.462V169.488V169.515V169.542V169.568V169.595V169.622V169.648V169.675V169.702V169.728V169.755V169.782V169.808V169.835V169.862V169.888V169.915V169.942V169.968V169.995V170.022V170.048V170.075V170.102V170.128V170.155V170.182V170.208V170.235V170.262V170.288V170.315V170.342V170.368V170.395V170.422V170.448V170.475V170.501V170.528V170.555V170.581V170.608V170.635V170.661V170.688V170.714V170.741V170.768V170.794V170.821V170.848V170.874V170.901V170.927V170.954V170.981V171.007V171.034V171.061V171.087V171.114V171.14V171.167V171.194V171.22V171.247V171.273V171.3V171.327V171.353V171.38V171.406V171.433V171.46V171.486V171.513V171.539V171.566V171.593V171.619V171.646V171.672V171.699V171.725V171.752V171.779V171.805V171.832V171.858V171.885V171.912V171.938V171.965V171.991V172.018V172.045V172.071V172.098V172.124V172.151V172.177V172.204V172.231V172.257V172.284V172.31V172.337V172.363V172.39V172.417V172.443V172.47V172.496V172.523V172.549V172.576V172.603V172.629V172.656V172.682V172.709V172.736V172.762V172.789V172.815V172.842V172.868V172.895V172.922V172.948V172.975V173.001V173.028V173.054V173.081V173.107V173.134V173.161V173.187V173.214V173.24C632.765 187.223 632.772 201.206 632.779 215.189C632.805 269.311 632.831 323.433 632.544 377.553C632.538 378.779 632.789 380.199 633.05 381.673C633.084 381.862 633.117 382.051 633.151 382.242C633.443 383.918 633.708 385.641 633.589 387.211C633.471 388.781 632.971 390.198 631.735 391.266C630.499 392.333 628.524 393.054 625.452 393.224C620.175 393.519 615.338 393.051 611.49 391.038C607.642 389.025 604.78 385.466 603.454 379.572C597.656 353.806 591.776 328.057 585.897 302.31L584.936 298.101C583.726 292.806 582.38 287.539 578.973 282.438L578.939 282.388V282.449C578.939 288.727 578.939 295.005 578.94 301.282C578.941 317.769 578.941 334.255 578.936 350.742C578.935 353.899 578.923 357.056 578.911 360.213C578.897 363.91 578.884 367.606 578.887 371.301L578.887 371.316C578.891 377.298 578.894 381.784 578.49 385.099C578.086 388.418 577.274 390.559 575.653 391.855C574.031 393.151 571.595 393.605 567.932 393.537Z" fill="#03A9F4" stroke="#111B33" stroke-width="0.0370201"/>
<path d="M526.685 277.991H526.666V278.009C526.666 286.309 526.673 294.609 526.679 302.909C526.694 322.041 526.709 341.174 526.644 360.308C526.605 372.176 523.617 380.968 517.555 386.841C511.493 392.714 502.355 395.67 490.007 395.858C489.225 395.87 488.443 395.885 487.66 395.9C484.024 395.971 480.383 396.042 476.769 395.797C467.297 395.156 459.478 391.876 454.012 386.453C448.547 381.03 445.435 373.462 445.381 364.242C445.035 305.521 444.963 246.796 445.254 188.075C445.302 178.362 448.061 170.833 453.268 165.529C458.474 160.225 466.13 157.144 475.976 156.329C481.676 155.857 487.445 155.705 493.158 155.949L493.158 155.93L493.158 155.949C504.066 156.411 512.372 159.414 517.982 164.965C523.591 170.516 526.507 178.617 526.632 189.281C526.873 209.996 526.819 230.714 526.765 251.432C526.742 260.285 526.719 269.138 526.719 277.991H526.685ZM471.661 274.087C471.661 281.631 471.673 289.175 471.685 296.719C471.715 315.692 471.746 334.665 471.584 353.636C471.541 358.65 472.019 363.38 474.04 366.861C476.063 370.345 479.629 372.575 485.753 372.594C491.811 372.613 495.419 370.464 497.507 367.038C499.594 363.614 500.161 358.917 500.144 353.843C499.967 301.665 499.938 249.488 500.18 197.311C500.203 192.443 499.651 187.951 497.692 184.638C495.732 181.323 492.366 179.19 486.767 179.04C480.97 178.884 477.124 180.724 474.748 183.943C472.373 187.161 471.469 191.755 471.546 197.105C471.807 215.436 471.755 233.771 471.703 252.106C471.682 259.433 471.661 266.76 471.661 274.087Z" fill="#03A9F4" stroke="#111B33" stroke-width="0.0370201"/>
<path d="M231.533 367.918H284.779C282.529 378.808 280.291 385.164 276.123 388.792C271.953 392.422 265.847 393.323 255.848 393.289C252.983 393.279 250.117 393.266 247.252 393.253C235.99 393.202 224.727 393.15 213.468 393.326C210.282 393.375 207.853 392.999 206.223 391.729C204.594 390.459 203.758 388.292 203.766 384.744C203.899 326.451 203.888 268.158 203.876 209.502C203.873 193.174 203.87 176.819 203.87 160.427C210.11 159.373 214.917 158.687 218.618 158.598C222.323 158.508 224.917 159.017 226.729 160.351C228.54 161.685 229.574 163.846 230.154 167.069C230.733 170.292 230.857 174.575 230.851 180.149C230.795 237.586 230.773 295.022 230.791 352.458C230.791 355.511 230.976 358.563 231.188 362.093C231.296 363.885 231.412 365.8 231.515 367.901L231.516 367.918H231.533Z" fill="#03A9F4" stroke="#111B33" stroke-width="0.0370201"/>
<path d="M320.268 367.653H373.03C371.719 378.174 369.913 384.531 366.155 388.283C362.395 392.036 356.677 393.185 347.53 393.28C345.43 393.302 343.331 393.327 341.23 393.353C328.309 393.509 315.378 393.665 302.498 392.997C301.708 392.956 300.766 392.636 299.798 392.139C298.83 391.641 297.836 390.966 296.941 390.214C296.046 389.463 295.25 388.636 294.677 387.835C294.103 387.033 293.755 386.26 293.751 385.616C293.341 321.038 293.352 256.458 293.363 191.496C293.364 181.017 293.366 170.528 293.366 160.027C299.528 159.098 304.285 158.503 307.955 158.465C311.628 158.427 314.21 158.947 316.021 160.243C317.831 161.539 318.875 163.614 319.467 166.696C320.059 169.778 320.199 173.864 320.204 179.179C320.242 220.927 320.243 262.677 320.245 304.427C320.246 320.142 320.247 335.858 320.249 351.573V351.6V351.628V351.655V351.683V351.71V351.738V351.765V351.792V351.82V351.847V351.875V351.902V351.93V351.957V351.984V352.012V352.039V352.067V352.094V352.122V352.149V352.177V352.204V352.231V352.259V352.286V352.314V352.341V352.369V352.396V352.424V352.451V352.479V352.506V352.534V352.561V352.589V352.616V352.643V352.671V352.698V352.726V352.753V352.781V352.809V352.836V352.864V352.891V352.919V352.946V352.974V353.001V353.029V353.056V353.084V353.111V353.139V353.167V353.194V353.222V353.249V353.277V353.305V353.332V353.36V353.387V353.415V353.443V353.47V353.498V353.526V353.553V353.581V353.609V353.636V353.664V353.692V353.719V353.747V353.775V353.802V353.83V353.858V353.886V353.913V353.941V353.969V353.997V354.024V354.052V354.08V354.108V354.136V354.163V354.191V354.219V354.247V354.275V354.303V354.331V354.358V354.386V354.414V354.442V354.47V354.498V354.526V354.554V354.582V354.61V354.638V354.666V354.694V354.722V354.75V354.778V354.806V354.834V354.862V354.89V354.918V354.946V354.974V355.002V355.031V355.059V355.087V355.115V355.143V355.171V355.2V355.228V355.256V355.284V355.312V355.341V355.369V355.397V355.425V355.454V355.482V355.51V355.539V355.567V355.595V355.624V355.652V355.681V355.709V355.738V355.766V355.794V355.823V355.851V355.88V355.908V355.937V355.965V355.994V356.023V356.051V356.08V356.108V356.137V356.166V356.194V356.223V356.252V356.28V356.309V356.338V356.367V356.395V356.424V356.453V356.482V356.511V356.539V356.568V356.597V356.626V356.655V356.684V356.713V356.742V356.771V356.8V356.829V356.858V356.887V356.916V356.945V356.974V357.003V357.032V357.062V357.091V357.12V357.149V357.178V357.208V357.237V357.266V357.295V357.325V357.354V357.383V357.413V357.442V357.472V357.501V357.53V357.56V357.589V357.619V357.648V357.678V357.707V357.737V357.767V357.796V357.826V357.856V357.885V357.915V357.945V357.974V358.004V358.034V358.064V358.094V358.123V358.153V358.183V358.213V358.243V358.273V358.303V358.333V358.363V358.393V358.423V358.453V358.483V358.513V358.543V358.574V358.604V358.634V358.664V358.694V358.725V358.755V358.785V358.816V358.846V358.876V358.907V358.937V358.968V358.998V359.029V359.059V359.09V359.12V359.151V359.182V359.212V359.243V359.274V359.304V359.335V359.366V359.397V359.428V359.458V359.489V359.52V359.551V359.582V359.613V359.644V359.675V359.706V359.737V359.768V359.799V359.831V359.862V359.893V359.924V359.956V359.987V360.018V360.049V360.081V360.112V360.144V360.175V360.207V360.238V360.27V360.301V360.333V360.364V360.396V360.428V360.459V360.491V360.523V360.555V360.586V360.618V360.65V360.682V360.714V360.746V360.778V360.81V360.842V360.874V360.906V360.938V360.97V361.002V361.035V361.067V361.099V361.131V361.164V361.196V361.228V361.261V361.293V361.326V361.358V361.391V361.423V361.456V361.489V361.521V361.554V361.587V361.619V361.652V361.685V361.718V361.751V361.784V361.817V361.85V361.883V361.916V361.949V361.982V362.015V362.048V362.081V362.115V362.148V362.181V362.214V362.248V362.281V362.315V362.348V362.381V362.415V362.449V362.482V362.516V362.549V362.583V362.617V362.651V362.684V362.718V362.752V362.786V362.82V362.854V362.888V362.922V362.956V362.99V363.024V363.058V363.093V363.127V363.161V363.195V363.23V363.264V363.298V363.333V363.367V363.402V363.436V363.471V363.506V363.54V363.575V363.61V363.645V363.679V363.714V363.749V363.784V363.819V363.854V363.889V363.924V363.959V363.994V364.03V364.065V364.1V364.135V364.171V364.206V364.241V364.277V364.312V364.348V364.383V364.419V364.455V364.49V364.526V364.562V364.598V364.633V364.669V364.705V364.741V364.777V364.813V364.849V364.885V364.921V364.958V364.994V365.03V365.066V365.103V365.139V365.176V365.212V365.249V365.285V365.322V365.358V365.395V365.432V365.468V365.505V365.542V365.579V365.616V365.653V365.69V365.727V365.764V365.801V365.838V365.875V365.913V365.95V365.987V366.025V366.062V366.1V366.137V366.175V366.212V366.25V366.288V366.325V366.363V366.401V366.439V366.477V366.515V366.552V366.591V366.629V366.667V366.705V366.743V366.781V366.82V366.858V366.896V366.935V366.973V367.012V367.05V367.089V367.127V367.166V367.205V367.244V367.283V367.321V367.36V367.399V367.438V367.477V367.516V367.556V367.595V367.634V367.653H320.268Z" fill="#03A9F4" stroke="#111B33" stroke-width="0.0370201"/>
<path d="M383.381 160.45V160.439C389.457 159.487 394.164 158.887 397.806 158.851C401.452 158.815 404.029 159.343 405.846 160.646C407.662 161.949 408.722 164.028 409.329 167.101C409.936 170.174 410.089 174.238 410.094 179.509C410.111 200.844 410.118 222.179 410.126 243.515C410.142 288.958 410.159 334.402 410.266 379.846C410.267 380.159 410.269 380.469 410.27 380.777C410.278 382.393 410.286 383.94 410.175 385.364C410.043 387.059 409.743 388.58 409.076 389.836C408.409 391.092 407.375 392.085 405.774 392.726C404.173 393.368 402.002 393.657 399.063 393.503C396.501 393.369 394.217 393.191 392.233 392.806C390.25 392.421 388.568 391.829 387.209 390.867C384.494 388.944 383.066 385.538 383.119 379.33C383.553 328.661 383.49 277.989 383.426 227.316C383.405 209.925 383.383 192.534 383.381 175.143V175.114V175.084V175.055V175.026V174.997V174.967V174.938V174.909V174.879V174.85V174.821V174.791V174.762V174.733V174.703V174.674V174.645V174.615V174.586V174.557V174.527V174.498V174.469V174.44V174.41V174.381V174.352V174.322V174.293V174.264V174.234V174.205V174.176V174.146V174.117V174.088V174.058V174.029V174V173.971V173.941V173.912V173.883V173.853V173.824V173.795V173.765V173.736V173.707V173.678V173.648V173.619V173.59V173.56V173.531V173.502V173.472V173.443V173.414V173.385V173.355V173.326V173.297V173.267V173.238V173.209V173.18V173.15V173.121V173.092V173.062V173.033V173.004V172.975V172.945V172.916V172.887V172.857V172.828V172.799V172.77V172.74V172.711V172.682V172.653V172.623V172.594V172.565V172.535V172.506V172.477V172.448V172.418V172.389V172.36V172.331V172.301V172.272V172.243V172.214V172.184V172.155V172.126V172.097V172.067V172.038V172.009V171.98V171.95V171.921V171.892V171.863V171.833V171.804V171.775V171.746V171.717V171.687V171.658V171.629V171.6V171.57V171.541V171.512V171.483V171.454V171.424V171.395V171.366V171.337V171.308V171.278V171.249V171.22V171.191V171.162V171.132V171.103V171.074V171.045V171.016V170.986V170.957V170.928V170.899V170.87V170.841V170.811V170.782V170.753V170.724V170.695V170.665V170.636V170.607V170.578V170.549V170.52V170.491V170.461V170.432V170.403V170.374V170.345V170.316V170.287V170.257V170.228V170.199V170.17V170.141V170.112V170.083V170.054V170.024V169.995V169.966V169.937V169.908V169.879V169.85V169.821V169.792V169.762V169.733V169.704V169.675V169.646V169.617V169.588V169.559V169.53V169.501V169.472V169.443V169.413V169.384V169.355V169.326V169.297V169.268V169.239V169.21V169.181V169.152V169.123V169.094V169.065V169.036V169.007V168.978V168.949V168.92V168.891V168.862V168.833V168.804V168.775V168.746V168.717V168.688V168.659V168.63V168.601V168.572V168.543V168.514V168.485V168.456V168.427V168.398V168.369V168.34V168.311V168.282V168.253V168.224V168.195V168.166V168.137V168.108V168.079V168.05V168.021V167.993V167.964V167.935V167.906V167.877V167.848V167.819V167.79V167.761V167.732V167.703V167.675V167.646V167.617V167.588V167.559V167.53V167.501V167.472V167.444V167.415V167.386V167.357V167.328V167.299V167.27V167.242V167.213V167.184V167.155V167.126V167.097V167.069V167.04V167.011V166.982V166.953V166.925V166.896V166.867V166.838V166.809V166.781V166.752V166.723V166.694V166.666V166.637V166.608V166.579V166.55V166.522V166.493V166.464V166.435V166.407V166.378V166.349V166.321V166.292V166.263V166.234V166.206V166.177V166.148V166.12V166.091V166.062V166.034V166.005V165.976V165.948V165.919V165.89V165.862V165.833V165.804V165.776V165.747V165.718V165.69V165.661V165.632V165.604V165.575V165.547V165.518V165.489V165.461V165.432V165.404V165.375V165.346V165.318V165.289V165.261V165.232V165.204V165.175V165.146V165.118V165.089V165.061V165.032V165.004V164.975V164.947V164.918V164.89V164.861V164.833V164.804V164.776V164.747V164.719V164.69V164.662V164.633V164.605V164.576V164.548V164.519V164.491V164.463V164.434V164.406V164.377V164.349V164.32V164.292V164.264V164.235V164.207V164.178V164.15V164.122V164.093V164.065V164.037V164.008V163.98V163.951V163.923V163.895V163.866V163.838V163.81V163.781V163.753V163.725V163.696V163.668V163.64V163.612V163.583V163.555V163.527V163.498V163.47V163.442V163.414V163.385V163.357V163.329V163.301V163.272V163.244V163.216V163.188V163.16V163.131V163.103V163.075V163.047V163.019V162.99V162.962V162.934V162.906V162.878V162.85V162.821V162.793V162.765V162.737V162.709V162.681V162.653V162.625V162.596V162.568V162.54V162.512V162.484V162.456V162.428V162.4V162.372V162.344V162.316V162.288V162.26V162.232V162.204V162.176V162.148V162.12V162.092V162.064V162.036V162.008V161.98V161.952V161.924V161.896V161.868V161.84V161.812V161.784V161.756V161.728V161.7V161.672V161.644V161.617V161.589V161.561V161.533V161.505V161.477V161.449V161.421V161.394V161.366V161.338V161.31V161.282V161.254V161.227V161.199V161.171V161.143V161.115V161.088V161.06V161.032V161.004V160.977V160.949V160.921V160.893V160.866V160.838V160.81V160.782V160.755V160.727V160.699V160.672V160.644V160.616V160.589V160.561V160.533V160.506V160.478V160.45Z" fill="#03A9F4" stroke="#111B33" stroke-width="0.0370201"/>
<path d="M159.12 388.964C159.027 390.266 158.927 391.662 158.838 393.199C156.974 393.199 155.292 393.181 153.73 393.165C150.605 393.132 147.966 393.104 145.335 393.233C141.244 393.435 138.272 392.772 136.325 390.997C134.378 389.222 133.452 386.331 133.463 382.062C133.599 331.195 133.586 280.328 133.573 229.461C133.568 207.107 133.562 184.753 133.569 162.398C133.569 162.013 133.713 161.627 133.898 161.238C133.968 161.091 134.044 160.943 134.12 160.794C134.243 160.556 134.366 160.318 134.464 160.081C139.982 159.063 144.302 158.438 147.679 158.397C151.058 158.357 153.49 158.902 155.232 160.224C156.974 161.546 158.029 163.647 158.649 166.726C159.27 169.804 159.454 173.858 159.456 179.082C159.482 246.74 159.484 314.396 159.458 382.053C159.458 384.238 159.302 386.423 159.12 388.964Z" fill="#03A9F4" stroke="#111B33" stroke-width="0.0370201"/>
<path d="M505.85 412.155C503.783 414.038 502.461 415.066 501.88 415.246C499.788 416.516 498.616 418.63 498.363 421.594L497.86 425.399C498.885 428.534 500.698 429.701 503.296 428.9C503.508 428.835 503.675 428.586 503.795 428.15C503.914 427.719 504.242 427.067 504.773 426.195C505.306 425.324 505.667 424.378 505.857 423.355C506.049 422.337 506.234 421.656 506.415 421.317C506.875 421.12 507.276 420.784 507.618 420.308C507.959 419.836 508.356 419.445 508.809 419.134C509.263 418.825 509.676 418.26 510.049 417.437C510.419 416.614 510.792 416.145 511.164 416.03L512.168 415.891L512.486 415.793C512.804 415.696 513.175 415.355 513.596 414.77C514.019 414.188 514.416 413.755 514.79 413.47C515.165 413.184 515.507 412.811 515.823 412.345C516.137 411.88 516.494 411.5 516.894 411.207C517.294 410.914 517.745 410.465 518.247 409.857L519.729 409.568C519.836 409.536 520.462 409.003 521.61 407.969C522.758 406.935 523.73 406.297 524.525 406.052L525.477 405.758C526.539 405.259 527.25 404.589 527.615 403.739C527.979 402.893 528.504 402.363 529.193 402.149L529.352 402.101L530.883 401.969C531.199 401.87 532.011 401.238 533.32 400.071C534.628 398.902 536.102 397.924 537.738 397.136C539.373 396.349 540.174 395.904 540.143 395.801C540.837 394.905 541.505 394.36 542.142 394.164L544.307 393.835L544.972 393.461L545.621 392.241L547.368 391.702C547.834 391.165 548.101 390.826 548.173 390.692C548.703 390.527 549.394 390.144 550.245 389.541L551.697 389.433L552.174 389.286L553.502 388.537L554.136 388.341C555.04 387.723 555.705 387.348 556.128 387.217C556.552 387.086 556.797 387.122 556.866 387.33C557.018 387.791 556.729 388.336 556 388.954C555.269 389.578 554.876 390.29 554.823 391.102C554.766 391.912 554.519 392.625 554.079 393.237C553.641 393.858 553.172 394.92 552.678 396.431L551.835 398.134C549.905 400.427 548.94 402.734 548.942 405.052C548.333 405.861 547.881 406.71 547.589 407.593C547.295 408.476 547.012 409.083 546.745 409.423C546.475 409.761 546.353 410.321 546.378 411.106L545.67 412.682C545.522 413.294 544.887 414.479 543.775 416.236L544.232 419.237C544.463 420.297 544.097 421.006 543.133 421.356C542.17 421.711 541.38 422.947 540.762 425.059C540.142 427.174 539.448 429.242 538.684 431.26C537.916 433.281 537.509 434.892 537.468 436.092C537.423 437.293 537.408 438.008 537.423 438.229C537.086 438.446 536.842 438.86 536.694 439.471C535.764 440.552 535.336 441.558 535.411 442.497L534.77 445.073C534.135 446.344 533.886 447.185 534.021 447.595L535.221 450.195C534.77 451.127 534.587 451.636 534.672 451.722C533.413 452.506 532.701 454.07 532.536 456.414C532.371 458.757 532.243 460.237 532.156 460.86C532.068 461.481 532.039 462.013 532.068 462.457C531.046 463.791 530.782 465.203 531.269 466.693C531.47 467.31 531.718 467.799 532.011 468.161C531.78 468.347 531.672 468.636 531.683 469.025C531.528 469.979 531.105 471.581 530.416 473.831C529.723 476.082 529.791 478.467 530.613 480.984C530.883 481.806 530.984 482.468 530.915 482.97C530.847 483.472 530.852 483.936 530.935 484.366C531.017 484.792 531.123 485.735 531.25 487.193C531.38 488.657 531.477 489.487 531.543 489.693C532.724 493.291 534.546 495.84 537.02 497.34C539.495 498.84 541.844 499.248 544.066 498.562L545.684 497.891L546.319 497.696C547.898 496.642 548.425 495.319 547.903 493.725C547.668 493.006 547.611 492.389 547.733 491.87C547.855 491.353 547.798 490.733 547.561 490.012C547.393 489.499 547.041 489 546.503 488.514C545.966 488.03 545.665 487.686 545.596 487.481C545.495 487.172 545.474 486.838 545.532 486.48L545.706 481.674L545.096 478.213C545.003 474.902 544.783 472.539 544.434 471.117C544.617 470.608 544.748 470.117 544.823 469.641L544.939 468.925C545.556 467.602 545.91 465.613 546.002 462.953C546.092 460.294 546.214 458.26 546.364 456.855C546.517 455.452 546.327 453.758 545.793 451.772C546.408 451.694 547.013 449.897 547.606 446.372C547.056 444.337 546.885 442.749 547.096 441.608C549.435 436.305 550.464 433.213 550.178 432.338L550.082 431.519C550.503 429.242 550.67 427.974 550.584 427.716C550.551 427.615 550.913 426.851 551.67 425.429L552.12 423.593C552.224 422.317 552.564 421.22 553.14 420.307L552.09 418.17C551.889 417.553 552.024 417.173 552.5 417.025L553.612 416.683L554.211 415.308L555.013 414.551C555.987 411.479 556.632 409.808 556.954 409.54L557.062 407.468C557.279 407.063 557.336 406.705 557.236 406.395C557.118 406.037 557.095 405.789 557.166 405.654L557.6 404.841C557.733 404.007 558.134 403.007 558.8 401.839C559.542 401.611 560.025 400.952 560.251 399.864C560.478 398.777 561.123 397.458 562.189 395.914C563.256 394.366 563.971 393.257 564.332 392.579C564.692 391.901 564.955 391.453 565.114 391.233C565.013 390.926 565.184 390.11 565.624 388.784C565.49 388.372 565.087 387.903 564.419 387.374C563.75 386.845 563.323 386.299 563.139 385.733C562.836 384.807 563.514 384.033 565.174 383.408C566.831 382.783 567.902 382.308 568.38 381.994C568.858 381.674 569.202 381.484 569.416 381.42L571.184 381.212L573.514 380.323L579.487 378.82C579.54 378.803 579.86 378.534 580.447 378.014C580.957 377.969 581.265 377.933 581.371 377.9L584.523 376.588L585.158 376.392C585.688 376.228 586.02 376.182 586.161 376.251L590.028 376.587C590.484 376.56 591.028 376.887 591.661 377.567C592.291 378.252 593.267 378.387 594.589 377.978C597.236 377.163 598.747 376.527 599.122 376.071C599.497 375.617 599.902 375.252 600.335 374.975C600.77 374.701 600.97 374.512 600.937 374.409C601.399 374.04 601.66 373.505 601.722 372.807L601.377 371.216L601.423 369.758L600.324 367.469C600.021 366.543 599.285 365.767 598.117 365.136C596.949 364.508 595.491 364.462 593.745 364.998L592.1 365.846L590.063 366.305L584.866 368.588L584.238 368.272C583.364 369.165 582.716 369.676 582.293 369.807L580.658 369.888C580.444 369.952 580.188 370.23 579.881 370.72C579.528 370.717 579.299 370.73 579.195 370.762L573.73 373.296L573.571 373.346C573.081 373.273 572.784 373.25 572.678 373.283L572.36 373.381L571.588 373.959L569.212 374.183C569.106 374.215 568.475 374.694 567.322 375.615L565.157 375.944C561.766 376.989 559.687 377.801 558.915 378.379C558.142 378.958 557.703 379.262 557.597 379.295L556.754 379.385L555.959 379.63C554.636 380.038 553.742 380.599 553.274 381.308L552.221 381.294L549.218 383.068L548.343 383.338C547.636 383.672 547.147 384.132 546.875 384.725C546.629 384.69 546.451 384.686 546.347 384.717L544.573 385.437C543.725 385.699 542.705 386.241 541.518 387.058C540.603 387.114 540.095 387.158 539.987 387.191L539.511 387.339C538.929 387.517 538.365 388.201 537.822 389.385L537.196 389.071C535.86 390.163 534.928 390.79 534.4 390.952C533.553 391.214 532.906 391.684 532.456 392.358C532.007 393.036 531.466 393.469 530.83 393.667L530.512 393.764C529.97 393.706 529.643 393.693 529.538 393.726L523.021 398.114C522.326 398.669 521.698 399.103 521.13 399.419C520.564 399.736 520.117 400.198 519.793 400.807C519.467 401.417 518.806 401.975 517.806 402.482C516.806 402.989 516.103 403.558 515.699 404.194C515.295 404.826 514.904 405.232 514.525 405.405C514.143 405.578 513.711 405.995 513.227 406.653C512.743 407.312 512.05 407.78 511.151 408.058L509.513 408.393L508.515 409.889L505.85 412.155L505.85 412.155Z" stroke="#111B33" stroke-miterlimit="10"/>
<path d="M588.004 417.697C589.149 421.193 591.468 422.401 594.961 421.321C597.342 420.587 598.435 419.034 598.242 416.66C598.046 414.287 598.005 412.829 598.12 412.285L598.73 410.144C598.988 409.159 599.657 407.863 600.734 406.259C601.812 404.652 603.28 402.599 605.145 400.102L606.867 397.617C607.618 395.463 608.417 394.253 609.264 393.993L610.775 393.526L610.965 393.043C611.408 391.549 612.416 390.444 613.991 389.733C614.499 389.86 614.846 390.205 615.03 390.769C615.063 390.873 615.025 391.65 614.918 393.097L615.379 393.973C615.446 394.179 615.353 394.602 615.098 395.248L614.603 396.673C614.763 398.944 614.628 401.065 614.194 403.038C613.761 405.011 613.657 406.331 613.875 406.999L614.755 408.086C613.802 408.379 613.57 409.273 614.057 410.761C612.854 412.605 612.429 414.064 612.782 415.144L613.092 415.558C613.914 415.756 614.395 416.062 614.527 416.472C614.664 416.885 614.122 417.276 612.903 417.653C612.745 417.702 612.681 418.133 612.713 418.943C612.747 419.755 612.477 421.068 611.908 422.885C611.334 424.703 611.104 426.13 611.211 427.173C611.319 428.214 611.232 428.963 610.944 429.419C610.655 429.877 610.602 430.472 610.784 431.208C610.967 431.945 611.008 432.598 610.902 433.167C610.798 433.739 610.83 434.279 610.998 434.793C611.1 435.1 611.285 435.498 611.56 435.977C610.446 436.492 610.042 437.21 610.345 438.135L611.208 440.244C611.345 440.657 611.072 441.165 610.397 441.768C610.242 442.723 610.232 443.403 610.367 443.814L611.063 444.874C611.232 445.387 611.308 446.154 611.294 447.179C610.95 447.908 611.013 448.992 611.486 450.428C611.586 450.737 611.484 451.095 611.179 451.5C610.874 451.906 610.79 452.313 610.926 452.723C611.025 453.031 611.253 453.331 611.61 453.616C611.966 453.903 612.16 454.097 612.195 454.201L612.245 454.353C612.47 457.001 612.635 458.477 612.735 458.787C613.409 460.843 614.835 463.244 617.019 465.994C619.202 468.745 620.898 470.187 622.11 470.323C622.214 470.29 622.445 470.376 622.803 470.575C623.162 470.778 623.784 470.993 624.678 471.228L627.67 472.085C627.953 471.885 628.386 471.695 628.969 471.514C631.194 470.83 632.815 469.282 633.834 466.873C634.838 466.562 635.299 466.097 635.211 465.473C635.124 464.85 635.26 464.2 635.621 463.522L636.716 460.723C636.177 459.078 636.543 458.059 637.814 457.668L641.358 447.662L642.648 442.255C643.726 439.321 644.347 437.742 644.51 437.524L644.181 436.521L644.304 435.295C644.906 434.995 645.198 434.465 645.182 433.708C645.167 432.947 645.289 432.388 645.549 432.025C645.809 431.663 645.995 431.292 646.105 430.92C645.949 430.798 646.086 430.373 646.518 429.644C646.949 428.92 647.467 427.869 648.067 426.494C648.033 426.393 648.013 425.975 648.008 425.24L648.598 424.38C648.704 424.347 648.821 423.461 648.954 421.723C649.788 421.071 650.224 420.312 650.263 419.451C650.302 418.59 650.431 417.958 650.645 417.552L650.895 416.71C651.083 415.859 651.241 415.359 651.365 415.207L652.847 414.919C653.217 414.805 653.342 414.032 653.221 412.597C653.102 411.162 653.232 410.133 653.611 409.507C654.567 408.872 654.886 408.066 654.565 407.09C654.75 406.58 655.149 405.752 655.761 404.598L656.782 403.434L657.163 402.468C657.308 402.198 657.672 401.224 658.259 399.541C658.845 397.86 659.476 396.718 660.154 396.113L660.443 394.325C660.948 393.377 661.189 392.78 661.167 392.533C661.144 392.286 661.37 391.862 661.844 391.261C662.317 390.666 662.787 389.74 663.254 388.494C663.721 387.247 664.271 385.902 664.906 384.462L665.7 384.217L665.916 383.81C665.952 382.497 666.518 381.29 667.614 380.189C668.711 379.085 669.564 377.862 670.172 376.513C670.78 375.166 671.47 373.936 672.24 372.818C673.013 371.705 673.543 370.791 673.835 370.077C674.128 369.366 674.371 368.865 674.568 368.578L674.417 368.115L674.475 367.758L675.428 367.464L675.803 367.009C676.63 365.793 677.577 364.904 678.648 364.348C679.719 363.793 680.664 363.162 681.483 362.456L682.565 362.291C683.411 362.029 684.239 360.868 685.052 358.806C685.865 356.744 686.035 354.996 685.563 353.556L684.572 351.063C684.302 350.242 683.648 349.268 682.61 348.145C681.572 347.021 680.626 346.496 679.773 346.559C678.92 346.625 678.309 346.63 677.943 346.572C677.575 346.517 677.123 346.571 676.595 346.734C675.96 346.93 675.243 347.322 674.443 347.906L672.676 348.114C671.775 348.392 670.368 349.701 668.454 352.046C668.148 352.708 667.702 353.311 667.123 353.859C666.545 354.404 665.352 355.748 663.549 357.887L664.236 359.458L663.487 360.368L661.45 360.828C661.024 361.129 660.944 361.947 661.203 363.28C659.42 365.135 658.318 366.618 657.898 367.738C657.479 368.858 657.031 369.944 656.56 370.995C654.727 373.765 653.905 375.436 654.091 376.001C654.293 376.618 654.083 377.361 653.464 378.23C652.846 379.101 652.605 379.741 652.739 380.153C652.874 380.564 653.405 380.766 654.338 380.761C654.362 381.547 654.161 382.005 653.738 382.136L651.782 382.57C651.637 382.842 651.289 383.289 650.736 383.911L650.576 383.959L651.271 385.017C651.304 385.121 651.03 385.432 650.444 385.952C649.859 386.471 649.702 387.145 649.971 387.966C649.431 388.98 649.196 389.592 649.263 389.797L649.666 391.03L649.292 391.487C648.874 391.274 648.559 391.202 648.348 391.267C648.136 391.331 647.389 392.866 646.105 395.864C644.82 398.863 644.229 400.517 644.329 400.824C644.482 401.288 644.938 401.485 645.705 401.419C646.47 401.353 646.937 401.579 647.105 402.091C647.171 402.296 646.926 402.71 646.375 403.334C646.067 402.75 645.806 402.491 645.597 402.555C644.854 402.784 644.131 403.519 643.426 404.754L643.11 404.853C642.473 405.048 642.116 405.653 642.039 406.667C641.963 407.681 641.425 409.418 640.421 411.876C639.418 414.337 638.868 416.133 638.771 417.266C638.675 418.398 638.298 419.873 637.637 421.689C636.977 423.507 636.858 425.058 637.277 426.343C637.345 426.546 637.434 426.634 637.54 426.601C638.309 426.818 638.812 427.283 639.049 428.003C639.233 428.569 639.114 428.916 638.691 429.047C638.584 429.079 638.372 428.962 638.048 428.693C637.727 428.424 637.275 428.379 636.692 428.559C636.375 428.656 636.169 429.104 636.079 429.894C635.987 430.686 635.73 431.858 635.302 433.402C633.902 435.362 633.385 436.908 633.755 438.038L632.162 442.52L630.001 451.163C629.993 451.845 629.319 453.44 627.981 455.946C627.358 456.366 627.045 457.098 627.038 458.147C627.033 459.197 626.833 459.922 626.441 460.326C626.05 460.732 625.679 461.339 625.336 462.154C624.99 462.968 624.566 463.507 624.072 463.774L623.906 464.332C623.593 464.09 623.387 463.814 623.285 463.507C623.049 462.787 622.788 462.162 622.496 461.628C622.539 461.049 622.528 460.656 622.46 460.452L621.896 459.267L621.568 458.264C621.433 457.854 621.429 457.217 621.557 456.357C621.682 455.5 621.654 454.432 621.47 453.159C621.287 451.885 621.25 451.063 621.36 450.69L621.615 449.594L620.882 447.359L621.535 444.016L621.356 441.863C621.667 439.788 621.855 438.317 621.921 437.446L622.414 426.94C622.713 425.714 622.669 424.513 622.282 423.33C622.182 423.021 622.451 422.556 623.093 421.935C623.733 421.31 623.904 419.832 623.604 417.491L624.219 415.093C624.653 414.11 624.856 413.568 624.821 413.465C624.546 411.91 624.829 409.926 625.67 407.515L626.43 404.226C626.763 403.106 626.845 402.289 626.676 401.773L627.016 400.141C626.94 399.203 627.032 398.412 627.287 397.766C627.543 397.122 628.058 395.309 628.828 392.324C629.6 389.342 629.885 387.543 629.685 386.926C629.582 386.618 629.445 386.378 629.273 386.206C630.533 385.25 630.642 383.18 629.598 379.993C628.924 377.937 627.573 376.699 625.54 376.281C623.508 375.861 622.29 375.826 621.879 376.179L606.862 388.791C606.333 388.956 605.61 389.687 604.694 390.987L604.128 391.925C602.725 392.981 601.735 394.135 601.155 395.389C600.573 396.644 599.939 397.463 599.248 397.844C598.557 398.23 598.029 398.973 597.662 400.074C597.293 401.18 596.81 401.88 596.208 402.179C595.005 404.023 594.391 405.26 594.366 405.889C593.941 406.02 593.163 406.937 592.033 408.644L590.548 411.054C588.447 414.249 587.599 416.463 588.002 417.696L588.004 417.697Z" stroke="#111B33" stroke-miterlimit="10"/>
<path d="M546.584 446.42C546.303 448.058 546.026 449.257 545.76 450.047C545.632 450.428 545.521 450.67 545.438 450.81L544.53 450.924L544.827 452.032C545.343 453.949 545.505 455.511 545.371 456.749L545.371 456.75C545.235 458.012 545.124 459.751 545.038 461.955H545.036L545.002 462.92C544.912 465.538 544.564 467.365 544.033 468.503L543.974 468.629L543.952 468.766L543.836 469.482L543.836 469.486C543.772 469.89 543.658 470.32 543.493 470.78L543.392 471.063L543.463 471.356C543.784 472.666 544.004 474.936 544.097 478.243L544.099 478.316L544.111 478.388L544.703 481.745L544.534 486.388C544.466 486.863 544.497 487.337 544.646 487.793L544.647 487.796C544.749 488.102 544.959 488.367 545.122 488.553C545.309 488.767 545.55 489.003 545.833 489.258M546.584 446.42L532.247 487.107M546.584 446.42C546.467 445.969 546.366 445.536 546.284 445.122C542.785 445.123 539.287 445.124 535.788 445.125L535.741 445.316L535.714 445.423L535.664 445.522C535.359 446.132 535.167 446.602 535.065 446.943C535.006 447.144 534.992 447.256 534.987 447.303L536.129 449.777L536.327 450.206L536.121 450.632C535.965 450.956 535.849 451.212 535.768 451.406L536.268 451.907L535.201 452.572C534.343 453.107 533.689 454.271 533.534 456.485L533.534 456.486C533.369 458.819 533.239 460.336 533.147 460.999L533.146 461.002C533.064 461.58 533.042 462.039 533.066 462.393L533.09 462.768L532.862 463.066C532.024 464.16 531.843 465.231 532.22 466.383L532.221 466.385C532.396 466.926 532.595 467.294 532.788 467.533L533.418 468.311L532.686 468.902C532.683 468.922 532.681 468.954 532.682 468.998L532.685 469.093L532.67 469.187C532.503 470.216 532.061 471.876 531.372 474.125L531.372 474.126C530.747 476.154 530.797 478.326 531.564 480.673C531.852 481.551 532.005 482.384 531.906 483.106M546.584 446.42L532.247 487.106M545.833 489.258C545.833 489.257 545.833 489.257 545.832 489.257L546.504 488.515L545.834 489.259C545.834 489.258 545.834 489.258 545.833 489.258ZM545.833 489.258C546.284 489.666 546.513 490.025 546.612 490.325M546.612 490.325C546.814 490.941 546.825 491.364 546.76 491.641L546.759 491.643C546.582 492.401 546.683 493.213 546.952 494.037L546.953 494.037C547.154 494.653 547.132 495.137 546.97 495.544C546.812 495.94 546.482 496.361 545.88 496.786M546.612 490.325L547.562 490.013L546.611 490.325C546.611 490.325 546.611 490.325 546.612 490.325ZM545.88 496.786L545.389 496.937L545.344 496.951L545.301 496.969L543.728 497.621M545.88 496.786C545.842 496.812 545.804 496.839 545.764 496.865L546.319 497.697L546.025 496.741L545.88 496.786ZM543.728 497.621C541.856 498.184 539.816 497.866 537.539 496.487M543.728 497.621L543.683 497.639L544.066 498.563M543.728 497.621C543.743 497.616 543.757 497.612 543.771 497.608L544.066 498.563M537.539 496.487C535.325 495.144 533.623 492.826 532.494 489.383L531.543 489.694L532.495 489.387C532.496 489.389 532.495 489.385 532.493 489.372C532.485 489.324 532.456 489.158 532.414 488.8C532.367 488.397 532.311 487.835 532.247 487.107M537.539 496.487C537.539 496.486 537.539 496.486 537.539 496.486L537.02 497.342M537.539 496.487L537.02 497.342M532.247 487.107L531.251 487.194L532.247 487.106C532.247 487.106 532.247 487.106 532.247 487.106M532.247 487.107L532.247 487.106M532.247 487.106C532.12 485.66 532.01 484.665 531.918 484.18L531.917 484.175C531.858 483.873 531.85 483.522 531.906 483.106M537.02 497.342C539.495 498.841 541.845 499.249 544.066 498.563M537.02 497.342L544.066 498.563M531.906 483.106C531.906 483.106 531.906 483.106 531.906 483.106L530.915 482.971L531.906 483.105C531.906 483.105 531.906 483.106 531.906 483.106ZM545.362 450.916C545.362 450.916 545.366 450.91 545.375 450.902C545.367 450.913 545.362 450.917 545.362 450.916Z" fill="#111B33" stroke="#111B33" stroke-width="2"/>
<path d="M548.32 417.941C549.222 417.942 550.124 417.943 551.018 417.944C551.041 418.134 551.086 418.316 551.14 418.48L551.162 418.548L551.193 418.612L552.009 420.272C551.521 421.209 551.235 422.269 551.131 423.432L550.729 425.071C550.378 425.734 550.109 426.259 549.928 426.641C549.834 426.839 549.755 427.017 549.7 427.162C549.673 427.232 549.643 427.32 549.62 427.41C549.609 427.455 549.595 427.524 549.588 427.604C549.583 427.655 549.575 427.776 549.607 427.926C549.608 427.95 549.607 427.989 549.604 428.047C549.596 428.2 549.573 428.425 549.533 428.73C549.453 429.339 549.309 430.206 549.1 431.339L549.073 431.487L549.09 431.637L549.186 432.455L549.198 432.554L549.229 432.649C549.225 432.638 549.225 432.639 549.226 432.655C549.227 432.701 549.231 432.868 549.164 433.227C549.083 433.659 548.924 434.245 548.674 434.998C548.174 436.499 547.347 438.564 546.182 441.206L546.135 441.313L546.114 441.427C546.018 441.943 545.991 442.51 546.022 443.122C542.777 443.123 539.532 443.124 536.287 443.125L536.383 442.74L536.422 442.582L536.409 442.419C536.364 441.857 536.608 441.107 537.453 440.125L537.611 439.942L537.667 439.707C537.787 439.211 537.938 439.089 537.965 439.071L538.461 438.752L538.421 438.163C538.411 438.008 538.422 437.362 538.468 436.131L538.468 436.128C538.504 435.093 538.864 433.604 539.619 431.617L539.62 431.616C540.394 429.573 541.095 427.481 541.722 425.342L541.722 425.342C542.017 424.336 542.336 423.597 542.661 423.089C542.987 422.58 543.273 422.373 543.478 422.297C544.125 422.061 544.691 421.658 545.019 421.024C545.338 420.409 545.356 419.723 545.217 419.058L545.046 417.938C546.127 417.939 547.223 417.94 548.32 417.941ZM549.606 427.895C549.606 427.895 549.606 427.897 549.607 427.904C549.606 427.898 549.606 427.895 549.606 427.895Z" fill="#111B33" stroke="#111B33" stroke-width="2"/>
<path d="M553.525 414.581L553.376 414.721L553.295 414.908L552.879 415.862L552.612 415.945L552.36 415.945C549.953 415.942 547.545 415.939 545.138 415.937C545.466 415.398 545.743 414.918 545.966 414.5C546.264 413.942 546.499 413.435 546.616 413.016L547.29 411.514L547.384 411.304L547.377 411.074C547.355 410.354 547.485 410.097 547.527 410.046L547.527 410.046L547.531 410.04C547.912 409.556 548.238 408.809 548.538 407.907L548.538 407.907C548.794 407.135 549.192 406.382 549.741 405.652L549.943 405.385L549.942 405.05C549.94 403.03 550.776 400.943 552.6 398.777L552.677 398.685L552.731 398.577L553.574 396.874L553.606 396.809L553.628 396.741C554.116 395.25 554.547 394.309 554.894 393.816C554.992 393.679 555.083 393.538 555.166 393.393C557.765 393.705 560.089 393.974 562.162 394.175C561.925 394.531 561.659 394.921 561.366 395.347C560.269 396.936 559.538 398.383 559.272 399.661C559.084 400.565 558.757 400.807 558.506 400.884L558.127 401.001L557.931 401.344C557.277 402.492 556.826 403.553 556.643 404.511L556.284 405.183L556.284 405.183L556.281 405.189C556.115 405.505 556.115 405.829 556.135 406.035C556.156 406.258 556.213 406.485 556.283 406.701C556.284 406.705 556.284 406.717 556.281 406.737C556.273 406.782 556.25 406.867 556.18 406.996L556.075 407.193L556.063 407.417L555.972 409.174C555.897 409.291 555.825 409.422 555.757 409.558C555.616 409.84 555.462 410.203 555.295 410.633C554.979 411.451 554.593 412.577 554.138 414.002L553.525 414.581ZM556.283 406.698C556.283 406.698 556.283 406.699 556.283 406.7L556.283 406.698Z" fill="#111B33" stroke="#111B33" stroke-width="2"/>
<path d="M553.868 387.317C554.643 386.802 555.315 386.423 555.834 386.262C556.093 386.182 556.434 386.105 556.781 386.158C556.97 386.187 557.192 386.258 557.396 386.417C557.607 386.581 557.743 386.795 557.816 387.016L557.816 387.017C557.999 387.571 557.884 388.109 557.647 388.554C557.42 388.98 557.062 389.365 556.649 389.715C556.082 390.201 555.854 390.677 555.821 391.168L555.821 391.173C555.814 391.268 555.805 391.362 555.794 391.455C558.664 391.798 561.168 392.083 563.357 392.278C563.39 392.219 563.421 392.163 563.449 392.111C563.695 391.647 563.909 391.265 564.086 390.978C564.087 390.932 564.089 390.888 564.091 390.847C564.104 390.642 564.139 390.419 564.187 390.188C564.264 389.821 564.384 389.381 564.544 388.875C564.419 388.711 564.193 388.472 563.799 388.159C563.04 387.56 562.455 386.863 562.189 386.044C561.92 385.224 562.113 384.434 562.668 383.8C563.168 383.229 563.934 382.807 564.822 382.474C566.492 381.843 567.456 381.405 567.827 381.161C568.299 380.846 568.754 380.576 569.127 380.463L569.212 380.438L569.3 380.427L570.944 380.235L573.158 379.39L573.213 379.369L573.27 379.355L577.878 378.195L553.868 387.317ZM553.868 387.317V382.225M553.868 387.317V382.225M553.868 382.225L554.11 381.859C554.391 381.431 555.025 380.965 556.255 380.586L556.958 380.369L557.705 380.289L557.8 380.279L557.892 380.25C558.056 380.2 558.205 380.108 558.261 380.073L558.266 380.069C558.356 380.014 558.461 379.944 558.577 379.863C558.811 379.701 559.125 379.472 559.515 379.18C559.782 378.98 560.382 378.673 561.419 378.268C562.413 377.88 563.731 377.431 565.381 376.921L567.472 376.604L567.737 376.564L567.946 376.397C568.521 375.938 568.96 375.594 569.265 375.363C569.381 375.275 569.473 375.207 569.544 375.156L571.683 374.954L571.963 374.928L572.188 374.759L572.822 374.285L572.872 374.27C572.883 374.27 572.895 374.271 572.909 374.272L553.868 382.225ZM578.033 371.301L577.906 371.36C577.906 371.734 577.906 372.101 577.906 372.462L578.906 371.999C578.906 371.768 578.906 371.536 578.906 371.301C578.906 371.166 578.906 371.032 578.905 370.897L578.035 371.301L578.033 371.301ZM569.668 375.071C569.68 375.063 569.678 375.065 569.663 375.073C569.665 375.072 569.667 375.071 569.668 375.071Z" fill="#111B33" stroke="#111B33" stroke-width="2"/>
<path d="M584.228 375.634L583.998 375.704L583.962 375.74L581.069 376.945C581.038 376.95 580.995 376.956 580.938 376.963C580.801 376.979 580.609 376.999 580.358 377.021L580.029 377.05L579.89 377.173C579.906 375.51 579.906 373.696 579.905 371.722L580.432 371.726L580.729 371.252C580.84 371.074 580.928 370.952 580.995 370.873L582.342 370.807L582.468 370.801L582.589 370.764C582.979 370.643 583.363 370.389 583.716 370.111C583.938 369.936 584.176 369.727 584.429 369.488L584.837 369.693L585.268 369.504L590.376 367.261L592.32 366.823L592.445 366.795L592.558 366.736L594.121 365.93C595.667 365.47 596.803 365.566 597.643 366.018C598.669 366.573 599.176 367.177 599.374 367.781L599.394 367.844L599.423 367.903L600.095 369.303L600.246 369.974L600.395 370.631L600.377 371.185L600.373 371.309L600.399 371.429L600.709 372.858C600.65 373.253 600.5 373.48 600.313 373.629L599.775 374.059L599.798 374.133L599.795 374.135C599.265 374.475 598.784 374.912 598.351 375.435C598.353 375.433 598.354 375.432 598.354 375.431C598.353 375.431 598.297 375.484 598.126 375.583C597.94 375.691 597.676 375.82 597.32 375.97C596.608 376.269 595.605 376.62 594.295 377.024L594.294 377.024C593.135 377.383 592.646 377.162 592.397 376.891L592.397 376.891L592.393 376.887C592.039 376.507 591.673 376.184 591.293 375.956C590.935 375.741 590.515 375.581 590.055 375.587L586.356 375.266C586.075 375.195 585.81 375.225 585.666 375.245C585.424 375.279 585.151 375.349 584.863 375.438C584.863 375.438 584.863 375.438 584.863 375.438L584.228 375.634ZM600.126 373.901C600.126 373.901 600.126 373.901 600.126 373.901L600.13 373.897C600.13 373.897 600.129 373.898 600.126 373.901ZM594.589 377.98C597.236 377.164 598.747 376.529 599.121 376.073C599.497 375.619 599.902 375.254 600.335 374.977L594.589 377.98Z" fill="#111B33" stroke="#111B33" stroke-width="2"/>
<path d="M547.813 389.757L547.876 389.738C548.253 389.62 548.841 389.31 549.668 388.725L549.894 388.565L550.171 388.544L551.51 388.444L551.776 388.362L551.867 388.311V382.664L549.726 383.929L549.625 383.989L549.511 384.024L548.709 384.271C548.208 384.52 547.932 384.818 547.784 385.142L547.473 385.821L546.734 385.715C546.685 385.708 546.645 385.703 546.612 385.7C546.603 385.7 546.595 385.699 546.588 385.698L544.948 386.364L544.909 386.38L544.868 386.392C544.159 386.612 543.234 387.091 542.085 387.882L541.856 388.039L541.579 388.056C541.124 388.084 540.778 388.109 540.535 388.13C540.413 388.14 540.325 388.149 540.266 388.156C540.254 388.158 540.244 388.159 540.236 388.16L539.808 388.294L539.804 388.295C539.767 388.306 539.633 388.366 539.423 388.621C539.216 388.872 538.981 389.255 538.731 389.802L538.299 390.744L537.373 390.279L537.322 390.253C536.849 390.626 536.426 390.939 536.053 391.19C535.572 391.513 535.106 391.781 534.695 391.907C534.048 392.108 533.599 392.446 533.288 392.912C532.74 393.739 532.025 394.343 531.127 394.622L531.122 394.623L530.804 394.72L530.609 394.78L530.407 394.758C530.171 394.733 529.992 394.719 529.864 394.712L523.613 398.921C522.902 399.486 522.239 399.946 521.618 400.292C521.228 400.51 520.914 400.828 520.675 401.278L547.813 389.757ZM547.813 389.757L547.754 389.785L547.753 389.785L547.451 389.924L547.293 390.216C547.297 390.209 547.296 390.211 547.289 390.221C547.273 390.243 547.228 390.307 547.134 390.425C547.048 390.533 546.936 390.669 546.797 390.832L545.325 391.286L544.931 391.408L544.737 391.772L544.226 392.734L543.975 392.874L541.991 393.176L541.918 393.187L541.848 393.209C540.925 393.492 540.105 394.222 539.366 395.171C539.305 395.209 539.212 395.265 539.079 395.338C538.705 395.546 538.117 395.844 537.303 396.236C535.587 397.062 534.034 398.092 532.653 399.326M547.813 389.757L532.653 399.326M525.476 405.758C526.538 405.26 527.25 404.589 527.614 403.74L530.584 401.015C530.564 401.021 530.552 401.026 530.552 401.026C530.552 401.025 530.572 401.016 530.617 400.988M525.476 405.758L525.181 404.803L525.112 404.824M525.476 405.758L525.051 404.853C525.072 404.844 525.092 404.834 525.112 404.824M525.476 405.758L524.525 406.053C523.729 406.298 522.757 406.936 521.609 407.97M525.112 404.824C525.977 404.406 526.457 403.901 526.695 403.346L526.695 403.344C527.141 402.311 527.853 401.518 528.896 401.195L528.902 401.193L528.902 401.193L529.06 401.145L529.16 401.114L529.265 401.105L530.617 400.988M525.112 404.824L524.23 405.097M530.617 400.988C530.631 400.98 530.649 400.969 530.668 400.956C530.776 400.886 530.923 400.781 531.114 400.632C531.495 400.336 532.006 399.903 532.653 399.326M530.617 400.988L532.653 399.326M524.23 405.097L524.524 406.053L524.229 405.098M524.23 405.097L524.229 405.098M524.23 405.097L524.229 405.098M521.609 407.97L520.94 407.227M521.609 407.97L520.94 407.227C520.94 407.227 520.94 407.227 520.94 407.227M521.609 407.97C520.461 409.004 519.835 409.536 519.728 409.569M520.94 407.227C522.119 406.165 523.222 405.408 524.229 405.098M520.94 407.227C520.368 407.742 519.933 408.126 519.631 408.383C519.505 408.49 519.408 408.57 519.337 408.626M519.337 408.626L519.537 408.587L519.728 409.569M519.337 408.626L518.055 408.876L517.703 408.945L517.475 409.221C517 409.797 516.61 410.176 516.302 410.4L516.301 410.401C515.797 410.771 515.363 411.239 514.994 411.785L514.994 411.785C514.728 412.178 514.457 412.467 514.184 412.675M519.337 408.626C519.322 408.638 519.308 408.649 519.295 408.659C519.278 408.672 519.264 408.682 519.254 408.69C519.243 408.698 519.239 408.701 519.239 408.701L519.247 408.696C519.251 408.693 519.259 408.688 519.271 408.682L519.272 408.681C519.285 408.674 519.347 408.64 519.438 408.612L519.728 409.569M519.728 409.569L518.247 409.858C517.745 410.466 517.293 410.914 516.893 411.207C516.494 411.5 516.137 411.881 515.822 412.345C515.506 412.812 515.164 413.185 514.79 413.471M514.184 412.675C514.184 412.675 514.184 412.675 514.185 412.675L514.79 413.471M514.184 412.675C514.183 412.676 514.183 412.676 514.183 412.676L514.79 413.471M514.184 412.675L513.595 414.771C514.018 414.189 514.415 413.755 514.79 413.471M539.442 395.119C539.443 395.119 539.441 395.12 539.438 395.122C539.44 395.12 539.442 395.119 539.442 395.119Z" fill="#111B33" stroke="#111B33" stroke-width="2"/>
<path d="M503.296 428.899C500.698 429.701 498.885 428.534 497.86 425.399L503.296 428.899ZM503.296 428.899C503.508 428.834 503.675 428.585 503.795 428.15L503.296 428.899ZM504.874 423.169L504.874 423.172C504.705 424.077 504.388 424.908 503.92 425.673L503.919 425.674C503.387 426.548 502.991 427.305 502.831 427.883L502.831 427.884C502.818 427.931 502.805 427.971 502.793 428.003C501.805 428.266 501.087 428.143 500.53 427.784C499.927 427.396 499.348 426.628 498.882 425.299L499.355 421.725L499.358 421.702L499.36 421.679C499.493 420.114 499.897 418.869 500.53 417.898L508.64 417.904C508.493 418.102 508.359 418.23 508.245 418.308L508.244 418.309C507.689 418.689 507.211 419.163 506.808 419.722L506.807 419.724C506.552 420.077 506.288 420.283 506.021 420.397L505.698 420.536L505.533 420.846C505.27 421.34 505.063 422.167 504.874 423.169Z" fill="#111B33" stroke="#111B33" stroke-width="2"/>
<mask id="path-20-inside-2_2158_34609" fill="white">
<path fill-rule="evenodd" clip-rule="evenodd" d="M632.164 442.52L630.003 451.163C629.994 451.845 629.321 453.44 627.983 455.946C627.36 456.366 627.047 457.098 627.039 458.147C627.035 459.197 626.835 459.922 626.443 460.326C626.051 460.732 625.681 461.339 625.337 462.154C624.992 462.968 624.568 463.507 624.073 463.774L623.908 464.333C623.595 464.09 623.389 463.814 623.287 463.507C623.05 462.787 622.789 462.162 622.498 461.628C622.541 461.049 622.53 460.656 622.461 460.452L621.898 459.267L621.57 458.264C621.435 457.854 621.431 457.217 621.558 456.357C621.684 455.5 621.656 454.432 621.471 453.159C621.288 451.885 621.252 451.063 621.362 450.69L621.616 449.594L620.884 447.359L621.537 444.016L621.358 441.864C621.371 441.783 621.382 441.702 621.394 441.623C619.748 442.357 617.972 442.896 616.1 443.202C614.219 443.509 612.313 443.72 610.398 443.86L611.064 444.872C611.232 445.385 611.309 446.152 611.295 447.177C610.95 447.906 611.013 448.99 611.486 450.426C611.587 450.735 611.485 451.093 611.18 451.498C610.875 451.904 610.791 452.311 610.926 452.721C611.026 453.029 611.254 453.329 611.611 453.614C611.967 453.901 612.161 454.096 612.196 454.199L612.245 454.351C612.47 456.999 612.636 458.475 612.736 458.785C613.409 460.841 614.836 463.242 617.02 465.992C619.202 468.743 620.898 470.186 622.11 470.321C622.215 470.288 622.446 470.374 622.804 470.573C623.162 470.776 623.785 470.991 624.679 471.226L627.671 472.083C627.954 471.883 628.386 471.693 628.97 471.513C631.194 470.828 632.816 469.28 633.834 466.871C634.838 466.56 635.3 466.095 635.211 465.471C635.124 464.848 635.261 464.198 635.622 463.52L636.716 460.721C636.178 459.076 636.543 458.057 637.815 457.666L641.359 447.66L642.649 442.253C643.727 439.319 644.348 437.74 644.511 437.522L644.181 436.519L644.305 435.293C644.907 434.993 645.198 434.463 645.182 433.706C645.168 432.945 645.29 432.386 645.55 432.023C645.809 431.661 645.996 431.29 646.106 430.918C645.95 430.796 646.087 430.371 646.519 429.642C646.95 428.918 647.468 427.867 648.067 426.492C648.034 426.391 648.014 425.973 648.008 425.239L648.599 424.378C648.704 424.345 648.822 423.459 648.954 421.721C649.788 421.069 650.224 420.31 650.263 419.449C650.302 418.588 650.432 417.956 650.646 417.55L650.896 416.708C651.083 415.857 651.242 415.357 651.366 415.205L652.848 414.917C653.218 414.803 653.342 414.03 653.222 412.595C653.103 411.16 653.232 410.131 653.611 409.505C654.567 408.87 654.886 408.064 654.566 407.088C654.75 406.578 655.15 405.75 655.762 404.596L656.782 403.432L657.164 402.466C657.308 402.196 657.673 401.222 658.259 399.539C658.846 397.858 659.477 396.716 660.154 396.111L660.443 394.323C660.948 393.375 661.189 392.778 661.168 392.531C661.144 392.284 661.371 391.86 661.845 391.259C662.318 390.664 662.788 389.738 663.254 388.492C663.722 387.245 664.272 385.9 664.907 384.46L665.7 384.215L665.917 383.808C665.953 382.495 666.519 381.288 667.615 380.187C668.712 379.083 669.565 377.86 670.173 376.511C670.781 375.164 671.47 373.934 672.241 372.816C673.014 371.704 673.544 370.789 673.835 370.075C674.129 369.364 674.372 368.863 674.568 368.576L674.417 368.113L674.475 367.756L675.429 367.462L675.803 367.007C676.63 365.791 677.578 364.902 678.649 364.346C679.72 363.791 680.665 363.16 681.483 362.454L682.565 362.289C683.412 362.027 684.24 360.866 685.053 358.804C685.865 356.742 686.035 354.994 685.564 353.554L684.573 351.061C684.303 350.24 683.649 349.266 682.611 348.143C681.573 347.019 680.627 346.494 679.774 346.557C678.921 346.623 678.309 346.628 677.944 346.57C677.575 346.515 677.124 346.569 676.596 346.732C675.96 346.928 675.243 347.32 674.443 347.904L672.676 348.112C671.776 348.39 670.369 349.7 668.454 352.044C668.148 352.706 667.703 353.309 667.124 353.857C666.546 354.402 665.353 355.746 663.549 357.885L664.237 359.456L663.487 360.366L661.451 360.826C661.024 361.127 660.944 361.945 661.204 363.278C659.42 365.133 658.319 366.616 657.898 367.736C657.479 368.856 657.032 369.942 656.561 370.993C654.728 373.764 653.906 375.434 654.092 375.999C654.293 376.616 654.083 377.359 653.465 378.228C652.847 379.099 652.606 379.739 652.739 380.151C652.874 380.563 653.405 380.764 654.338 380.759C654.363 381.545 654.161 382.003 653.739 382.134L651.782 382.568C651.637 382.84 651.289 383.287 650.736 383.909L650.577 383.957L651.271 385.015C651.305 385.119 651.031 385.43 650.444 385.95C649.86 386.47 649.703 387.143 649.971 387.964C649.432 388.979 649.197 389.59 649.263 389.796L649.667 391.028L649.292 391.485C648.874 391.272 648.56 391.2 648.349 391.265C648.137 391.329 647.39 392.864 646.106 395.863C644.82 398.862 644.229 400.516 644.329 400.823C644.482 401.286 644.939 401.483 645.705 401.417C646.47 401.351 646.938 401.577 647.106 402.089C647.172 402.294 646.927 402.708 646.376 403.332C646.068 402.748 645.807 402.489 645.598 402.553C644.855 402.782 644.132 403.517 643.427 404.752L643.11 404.851C642.473 405.046 642.116 405.651 642.039 406.665C641.964 407.679 641.425 409.416 640.421 411.874C639.418 414.335 638.868 416.131 638.771 417.264C638.675 418.396 638.298 419.871 637.638 421.687C636.977 423.505 636.858 425.056 637.278 426.341C637.346 426.544 637.435 426.632 637.54 426.599C638.309 426.816 638.813 427.281 639.05 428.001C639.234 428.567 639.115 428.914 638.691 429.045C638.584 429.077 638.372 428.96 638.048 428.691C637.728 428.422 637.275 428.377 636.693 428.557C636.375 428.654 636.169 429.102 636.079 429.892C635.988 430.684 635.731 431.856 635.303 433.4C633.902 435.36 633.385 436.906 633.756 438.036L632.163 442.518L632.164 442.52Z"/>
</mask>
<path fill-rule="evenodd" clip-rule="evenodd" d="M632.164 442.52L630.003 451.163C629.994 451.845 629.321 453.44 627.983 455.946C627.36 456.366 627.047 457.098 627.039 458.147C627.035 459.197 626.835 459.922 626.443 460.326C626.051 460.732 625.681 461.339 625.337 462.154C624.992 462.968 624.568 463.507 624.073 463.774L623.908 464.333C623.595 464.09 623.389 463.814 623.287 463.507C623.05 462.787 622.789 462.162 622.498 461.628C622.541 461.049 622.53 460.656 622.461 460.452L621.898 459.267L621.57 458.264C621.435 457.854 621.431 457.217 621.558 456.357C621.684 455.5 621.656 454.432 621.471 453.159C621.288 451.885 621.252 451.063 621.362 450.69L621.616 449.594L620.884 447.359L621.537 444.016L621.358 441.864C621.371 441.783 621.382 441.702 621.394 441.623C619.748 442.357 617.972 442.896 616.1 443.202C614.219 443.509 612.313 443.72 610.398 443.86L611.064 444.872C611.232 445.385 611.309 446.152 611.295 447.177C610.95 447.906 611.013 448.99 611.486 450.426C611.587 450.735 611.485 451.093 611.18 451.498C610.875 451.904 610.791 452.311 610.926 452.721C611.026 453.029 611.254 453.329 611.611 453.614C611.967 453.901 612.161 454.096 612.196 454.199L612.245 454.351C612.47 456.999 612.636 458.475 612.736 458.785C613.409 460.841 614.836 463.242 617.02 465.992C619.202 468.743 620.898 470.186 622.11 470.321C622.215 470.288 622.446 470.374 622.804 470.573C623.162 470.776 623.785 470.991 624.679 471.226L627.671 472.083C627.954 471.883 628.386 471.693 628.97 471.513C631.194 470.828 632.816 469.28 633.834 466.871C634.838 466.56 635.3 466.095 635.211 465.471C635.124 464.848 635.261 464.198 635.622 463.52L636.716 460.721C636.178 459.076 636.543 458.057 637.815 457.666L641.359 447.66L642.649 442.253C643.727 439.319 644.348 437.74 644.511 437.522L644.181 436.519L644.305 435.293C644.907 434.993 645.198 434.463 645.182 433.706C645.168 432.945 645.29 432.386 645.55 432.023C645.809 431.661 645.996 431.29 646.106 430.918C645.95 430.796 646.087 430.371 646.519 429.642C646.95 428.918 647.468 427.867 648.067 426.492C648.034 426.391 648.014 425.973 648.008 425.239L648.599 424.378C648.704 424.345 648.822 423.459 648.954 421.721C649.788 421.069 650.224 420.31 650.263 419.449C650.302 418.588 650.432 417.956 650.646 417.55L650.896 416.708C651.083 415.857 651.242 415.357 651.366 415.205L652.848 414.917C653.218 414.803 653.342 414.03 653.222 412.595C653.103 411.16 653.232 410.131 653.611 409.505C654.567 408.87 654.886 408.064 654.566 407.088C654.75 406.578 655.15 405.75 655.762 404.596L656.782 403.432L657.164 402.466C657.308 402.196 657.673 401.222 658.259 399.539C658.846 397.858 659.477 396.716 660.154 396.111L660.443 394.323C660.948 393.375 661.189 392.778 661.168 392.531C661.144 392.284 661.371 391.86 661.845 391.259C662.318 390.664 662.788 389.738 663.254 388.492C663.722 387.245 664.272 385.9 664.907 384.46L665.7 384.215L665.917 383.808C665.953 382.495 666.519 381.288 667.615 380.187C668.712 379.083 669.565 377.86 670.173 376.511C670.781 375.164 671.47 373.934 672.241 372.816C673.014 371.704 673.544 370.789 673.835 370.075C674.129 369.364 674.372 368.863 674.568 368.576L674.417 368.113L674.475 367.756L675.429 367.462L675.803 367.007C676.63 365.791 677.578 364.902 678.649 364.346C679.72 363.791 680.665 363.16 681.483 362.454L682.565 362.289C683.412 362.027 684.24 360.866 685.053 358.804C685.865 356.742 686.035 354.994 685.564 353.554L684.573 351.061C684.303 350.24 683.649 349.266 682.611 348.143C681.573 347.019 680.627 346.494 679.774 346.557C678.921 346.623 678.309 346.628 677.944 346.57C677.575 346.515 677.124 346.569 676.596 346.732C675.96 346.928 675.243 347.32 674.443 347.904L672.676 348.112C671.776 348.39 670.369 349.7 668.454 352.044C668.148 352.706 667.703 353.309 667.124 353.857C666.546 354.402 665.353 355.746 663.549 357.885L664.237 359.456L663.487 360.366L661.451 360.826C661.024 361.127 660.944 361.945 661.204 363.278C659.42 365.133 658.319 366.616 657.898 367.736C657.479 368.856 657.032 369.942 656.561 370.993C654.728 373.764 653.906 375.434 654.092 375.999C654.293 376.616 654.083 377.359 653.465 378.228C652.847 379.099 652.606 379.739 652.739 380.151C652.874 380.563 653.405 380.764 654.338 380.759C654.363 381.545 654.161 382.003 653.739 382.134L651.782 382.568C651.637 382.84 651.289 383.287 650.736 383.909L650.577 383.957L651.271 385.015C651.305 385.119 651.031 385.43 650.444 385.95C649.86 386.47 649.703 387.143 649.971 387.964C649.432 388.979 649.197 389.59 649.263 389.796L649.667 391.028L649.292 391.485C648.874 391.272 648.56 391.2 648.349 391.265C648.137 391.329 647.39 392.864 646.106 395.863C644.82 398.862 644.229 400.516 644.329 400.823C644.482 401.286 644.939 401.483 645.705 401.417C646.47 401.351 646.938 401.577 647.106 402.089C647.172 402.294 646.927 402.708 646.376 403.332C646.068 402.748 645.807 402.489 645.598 402.553C644.855 402.782 644.132 403.517 643.427 404.752L643.11 404.851C642.473 405.046 642.116 405.651 642.039 406.665C641.964 407.679 641.425 409.416 640.421 411.874C639.418 414.335 638.868 416.131 638.771 417.264C638.675 418.396 638.298 419.871 637.638 421.687C636.977 423.505 636.858 425.056 637.278 426.341C637.346 426.544 637.435 426.632 637.54 426.599C638.309 426.816 638.813 427.281 639.05 428.001C639.234 428.567 639.115 428.914 638.691 429.045C638.584 429.077 638.372 428.96 638.048 428.691C637.728 428.422 637.275 428.377 636.693 428.557C636.375 428.654 636.169 429.102 636.079 429.892C635.988 430.684 635.731 431.856 635.303 433.4C633.902 435.36 633.385 436.906 633.756 438.036L632.163 442.518L632.164 442.52Z" fill="#111B33" stroke="#111B33" stroke-width="0.0740402" mask="url(#path-20-inside-2_2158_34609)"/>
<path d="M622.397 426.936L622.398 426.936C622.696 425.714 622.653 424.516 622.266 423.336L622.266 423.336C622.214 423.174 622.259 422.975 622.395 422.741C622.531 422.506 622.76 422.233 623.082 421.922C623.397 421.614 623.599 421.093 623.684 420.355C623.769 419.617 623.737 418.664 623.587 417.494L623.586 417.486L623.588 417.487L623.975 415.976C622.708 416.071 621.404 416.296 620.137 416.515C619.998 416.538 619.86 416.562 619.723 416.586C618.32 416.826 616.971 417.04 615.782 417.039H615.782L615.04 417.038L614.304 417.037C614.039 417.254 613.573 417.464 612.909 417.669C612.876 417.68 612.846 417.71 612.819 417.768C612.792 417.826 612.771 417.908 612.755 418.014C612.724 418.228 612.716 418.537 612.731 418.942L612.713 418.942L612.731 418.942C612.765 419.757 612.494 421.073 611.925 422.89L611.925 422.89C611.352 424.707 611.122 426.131 611.229 427.17C611.337 428.212 611.251 428.967 610.959 429.429L610.959 429.429C610.674 429.88 610.62 430.469 610.802 431.203C610.802 431.203 610.802 431.203 610.802 431.203L610.784 431.208C610.967 431.945 611.008 432.597 610.902 433.166L622.397 426.936ZM622.397 426.936L622.397 426.94M622.397 426.936L622.397 426.94M622.397 426.94L621.905 437.431L621.904 437.445C621.841 438.28 621.665 439.667 621.377 441.611C619.735 442.342 617.963 442.88 616.097 443.185C614.22 443.491 612.318 443.702 610.407 443.841L610.383 443.805C610.251 443.4 610.26 442.726 610.414 441.776C610.75 441.476 610.987 441.198 611.123 440.942C611.26 440.685 611.296 440.45 611.226 440.237L611.226 440.237L611.225 440.236L610.362 438.127L622.397 426.94Z" fill="#111B33" stroke="#111B33" stroke-width="0.0370201"/>
<mask id="path-22-inside-3_2158_34609" fill="white">
<path fill-rule="evenodd" clip-rule="evenodd" d="M615.783 417.02C618.157 417.023 621.17 416.165 624 415.955L624.221 415.094C624.655 414.111 624.858 413.568 624.823 413.466C624.548 411.91 624.831 409.927 625.672 407.516L626.431 404.226C626.765 403.107 626.846 402.289 626.678 401.774L627.018 400.141C626.942 399.203 627.034 398.413 627.289 397.766C627.532 397.155 628.009 395.489 628.716 392.766C627.797 393.009 626.718 393.172 625.454 393.242C621.664 393.454 618.101 393.273 614.967 392.408C614.953 392.617 614.936 392.847 614.918 393.096L615.379 393.972C615.446 394.178 615.353 394.602 615.098 395.247L614.603 396.673C614.762 398.944 614.627 401.065 614.194 403.037C613.761 405.011 613.657 406.331 613.874 406.999L614.755 408.086C613.802 408.379 613.57 409.272 614.057 410.761C612.854 412.605 612.429 414.064 612.782 415.143L613.092 415.558C613.913 415.756 614.395 416.062 614.527 416.472C614.589 416.658 614.512 416.84 614.297 417.019C614.792 417.019 615.287 417.02 615.783 417.02V417.02Z"/>
</mask>
<path fill-rule="evenodd" clip-rule="evenodd" d="M615.783 417.02C618.157 417.023 621.17 416.165 624 415.955L624.221 415.094C624.655 414.111 624.858 413.568 624.823 413.466C624.548 411.91 624.831 409.927 625.672 407.516L626.431 404.226C626.765 403.107 626.846 402.289 626.678 401.774L627.018 400.141C626.942 399.203 627.034 398.413 627.289 397.766C627.532 397.155 628.009 395.489 628.716 392.766C627.797 393.009 626.718 393.172 625.454 393.242C621.664 393.454 618.101 393.273 614.967 392.408C614.953 392.617 614.936 392.847 614.918 393.096L615.379 393.972C615.446 394.178 615.353 394.602 615.098 395.247L614.603 396.673C614.762 398.944 614.627 401.065 614.194 403.037C613.761 405.011 613.657 406.331 613.874 406.999L614.755 408.086C613.802 408.379 613.57 409.272 614.057 410.761C612.854 412.605 612.429 414.064 612.782 415.143L613.092 415.558C613.913 415.756 614.395 416.062 614.527 416.472C614.589 416.658 614.512 416.84 614.297 417.019C614.792 417.019 615.287 417.02 615.783 417.02V417.02Z" fill="#111B33"/>
<path d="M615.783 417.02L615.783 416.983L615.746 416.983V417.02H615.783ZM624 415.955L624.003 415.992L624.029 415.99L624.036 415.965L624 415.955ZM624.221 415.094L624.187 415.079L624.185 415.085L624.221 415.094ZM624.823 413.466L624.786 413.472L624.788 413.478L624.823 413.466ZM625.672 407.516L625.707 407.528L625.708 407.524L625.672 407.516ZM626.431 404.226L626.396 404.216L626.395 404.218L626.431 404.226ZM626.678 401.774L626.642 401.766L626.64 401.776L626.643 401.785L626.678 401.774ZM627.018 400.141L627.055 400.149L627.055 400.138L627.018 400.141ZM627.289 397.766L627.255 397.752L627.255 397.752L627.289 397.766ZM628.716 392.766L628.752 392.776L628.768 392.715L628.707 392.731L628.716 392.766ZM625.454 393.242L625.451 393.205L625.451 393.205L625.454 393.242ZM614.967 392.408L614.977 392.373L614.933 392.36L614.93 392.406L614.967 392.408ZM614.918 393.096L614.881 393.093L614.88 393.104L614.885 393.113L614.918 393.096ZM615.379 393.972L615.415 393.961L615.412 393.955L615.379 393.972ZM615.098 395.247L615.063 395.234L615.063 395.235L615.098 395.247ZM614.603 396.673L614.568 396.661L614.565 396.668L614.566 396.675L614.603 396.673ZM614.194 403.037L614.157 403.029L614.157 403.03L614.194 403.037ZM613.874 406.999L613.837 407.011L613.846 407.022L613.874 406.999ZM614.755 408.086L614.766 408.121L614.818 408.105L614.784 408.063L614.755 408.086ZM614.057 410.761L614.088 410.781L614.098 410.766L614.092 410.75L614.057 410.761ZM612.782 415.143L612.745 415.155L612.752 415.165L612.782 415.143ZM613.092 415.558L613.062 415.58L613.07 415.591L613.083 415.594L613.092 415.558ZM614.527 416.472L614.492 416.483L614.492 416.483L614.527 416.472ZM614.297 417.019L614.274 416.99L614.195 417.055L614.297 417.056L614.297 417.019ZM615.783 417.02L615.783 417.058L615.82 417.058V417.02H615.783ZM615.783 417.057C616.973 417.059 618.323 416.844 619.726 416.604C621.131 416.363 622.59 416.097 624.003 415.992L623.997 415.919C622.58 416.024 621.117 416.291 619.714 416.531C618.31 416.771 616.966 416.984 615.783 416.983L615.783 417.057ZM624.036 415.965L624.257 415.103L624.185 415.085L623.964 415.946L624.036 415.965ZM624.255 415.109C624.472 414.617 624.632 414.235 624.733 413.962C624.783 413.826 624.819 413.717 624.841 413.634C624.851 413.593 624.859 413.558 624.862 413.529C624.865 413.501 624.865 413.475 624.858 413.454L624.788 413.478C624.79 413.482 624.791 413.495 624.788 413.52C624.786 413.545 624.779 413.576 624.769 413.616C624.749 413.695 624.713 413.801 624.663 413.937C624.563 414.207 624.404 414.587 624.187 415.079L624.255 415.109ZM624.86 413.459C624.586 411.913 624.866 409.936 625.707 407.528L625.637 407.503C624.795 409.917 624.51 411.908 624.787 413.472L624.86 413.459ZM625.708 407.524L626.467 404.235L626.395 404.218L625.636 407.507L625.708 407.524ZM626.467 404.237C626.801 403.117 626.885 402.289 626.714 401.762L626.643 401.785C626.807 402.289 626.729 403.097 626.396 404.216L626.467 404.237ZM626.715 401.781L627.054 400.149L626.981 400.134L626.642 401.766L626.715 401.781ZM627.055 400.138C626.979 399.204 627.071 398.419 627.324 397.78L627.255 397.752C626.997 398.406 626.905 399.202 626.981 400.144L627.055 400.138ZM627.324 397.78C627.567 397.166 628.045 395.497 628.752 392.776L628.68 392.757C627.973 395.481 627.496 397.144 627.255 397.752L627.324 397.78ZM628.707 392.731C627.79 392.972 626.714 393.135 625.451 393.205L625.456 393.279C626.722 393.209 627.803 393.046 628.725 392.802L628.707 392.731ZM625.451 393.205C621.664 393.417 618.106 393.236 614.977 392.373L614.957 392.444C618.097 393.31 621.664 393.491 625.456 393.279L625.451 393.205ZM614.93 392.406C614.916 392.615 614.899 392.844 614.881 393.093L614.954 393.099C614.973 392.85 614.99 392.62 615.004 392.411L614.93 392.406ZM614.885 393.113L615.346 393.99L615.412 393.955L614.95 393.079L614.885 393.113ZM615.344 393.984C615.374 394.077 615.369 394.226 615.323 394.437C615.277 394.647 615.191 394.912 615.063 395.234L615.132 395.261C615.26 394.937 615.348 394.668 615.395 394.453C615.442 394.24 615.451 394.074 615.414 393.961L615.344 393.984ZM615.063 395.235L614.568 396.661L614.638 396.685L615.133 395.259L615.063 395.235ZM614.566 396.675C614.725 398.943 614.59 401.061 614.157 403.029L614.23 403.045C614.664 401.069 614.8 398.944 614.64 396.67L614.566 396.675ZM614.157 403.03C613.941 404.017 613.806 404.842 613.753 405.505C613.7 406.166 613.728 406.669 613.839 407.01L613.91 406.987C613.803 406.66 613.774 406.169 613.827 405.511C613.88 404.853 614.014 404.031 614.23 403.045L614.157 403.03ZM613.846 407.022L614.726 408.109L614.784 408.063L613.903 406.975L613.846 407.022ZM614.744 408.051C614.257 408.2 613.95 408.506 613.83 408.966C613.711 409.422 613.777 410.026 614.022 410.773L614.092 410.75C613.849 410.008 613.788 409.42 613.902 408.984C614.014 408.552 614.3 408.264 614.766 408.121L614.744 408.051ZM614.026 410.741C612.822 412.586 612.388 414.058 612.746 415.155L612.817 415.132C612.47 414.07 612.886 412.624 614.088 410.781L614.026 410.741ZM612.752 415.165L613.062 415.58L613.122 415.536L612.811 415.121L612.752 415.165ZM613.083 415.594C613.492 415.692 613.813 415.817 614.048 415.967C614.283 416.116 614.429 416.289 614.492 416.483L614.562 416.46C614.493 416.245 614.332 416.06 614.088 415.904C613.844 415.749 613.514 415.621 613.101 415.522L613.083 415.594ZM614.492 416.483C614.52 416.568 614.517 416.651 614.482 416.734C614.447 416.818 614.378 416.903 614.274 416.99L614.321 417.047C614.431 416.956 614.509 416.861 614.55 416.763C614.592 416.663 614.596 416.562 614.562 416.46L614.492 416.483ZM614.297 417.056C614.545 417.056 614.792 417.056 615.04 417.057C615.287 417.057 615.535 417.057 615.783 417.058L615.783 416.983C615.535 416.983 615.287 416.983 615.04 416.983C614.792 416.982 614.545 416.982 614.298 416.982L614.297 417.056ZM615.82 417.02V417.02H615.746V417.02H615.82Z" fill="#111B33" mask="url(#path-22-inside-3_2158_34609)"/>
<path d="M614.987 392.394C614.982 392.393 614.977 392.392 614.972 392.39L614.968 392.406C615.036 391.401 615.057 390.855 615.03 390.769C614.846 390.205 614.499 389.859 613.991 389.733L614.987 392.394ZM614.987 392.394C618.115 393.255 621.671 393.435 625.452 393.224C626.711 393.154 627.785 392.992 628.701 392.751C628.712 392.708 628.723 392.665 628.734 392.621C628.76 392.522 628.786 392.422 628.812 392.32L628.812 392.32C629.198 390.829 629.462 389.635 629.605 388.736C629.676 388.286 629.717 387.911 629.727 387.61C629.738 387.309 629.718 387.084 629.669 386.933C629.567 386.626 629.432 386.389 629.262 386.22L629.247 386.205L629.264 386.192C629.888 385.718 630.229 384.967 630.283 383.936C630.338 382.903 630.104 381.592 629.582 379.999C628.911 377.95 627.565 376.716 625.538 376.299L625.542 376.281L625.538 376.299C624.523 376.089 623.712 375.976 623.103 375.959C622.799 375.95 622.546 375.966 622.344 376.006C622.142 376.045 621.992 376.108 621.893 376.194L621.893 376.194L607.666 388.142C608.894 389.458 610.318 390.474 611.898 391.244C612.423 390.616 613.118 390.106 613.983 389.716L613.996 389.71L613.995 389.715C614.51 389.843 614.862 390.194 615.047 390.763L615.048 390.763C615.052 390.776 615.054 390.796 615.056 390.822C615.058 390.847 615.059 390.88 615.06 390.92C615.061 390.999 615.058 391.108 615.053 391.244C615.043 391.515 615.021 391.898 614.987 392.394Z" fill="#111B33" stroke="#111B33" stroke-width="0.0370201"/>
<path d="M598.243 417.016C598.273 418.097 598.015 418.992 597.471 419.705C596.924 420.422 596.086 420.955 594.956 421.303L594.955 421.303C593.212 421.842 591.764 421.809 590.611 421.208C589.457 420.607 588.593 419.436 588.022 417.691C587.956 417.489 587.923 417.26 587.925 417.003L593.084 417.009L598.243 417.016Z" fill="#111B33" stroke="#111B33" stroke-width="0.0370201"/>
<path d="M599.25 397.845L599.259 397.862C599.259 397.862 599.259 397.862 599.259 397.862C598.574 398.245 598.048 398.982 597.681 400.081C597.313 401.186 596.829 401.891 596.222 402.194C595.623 403.114 595.17 403.882 594.864 404.499C594.557 405.117 594.399 405.581 594.387 405.891L594.386 405.904L594.374 405.908C594.271 405.94 594.145 406.02 593.995 406.15C593.846 406.28 593.674 406.46 593.48 406.689C593.092 407.147 592.615 407.802 592.05 408.656C592.05 408.656 592.05 408.656 592.05 408.656L590.566 411.065L590.565 411.066C589.693 412.392 589.038 413.548 588.598 414.535C588.162 415.513 587.939 416.323 587.926 416.966C591.365 416.97 594.803 416.974 598.242 416.979L604.712 390.998M599.25 397.845C599.941 397.464 600.575 396.646 601.157 395.39C601.737 394.137 602.727 392.982 604.13 391.926L604.696 390.988M599.25 397.845C598.56 398.231 598.031 398.974 597.664 400.076C597.295 401.181 596.812 401.881 596.21 402.18C595.007 404.024 594.393 405.261 594.368 405.89L599.25 397.845ZM604.696 390.988L604.712 390.999C604.712 390.999 604.712 390.998 604.712 390.998M604.696 390.988L604.712 390.998L604.712 390.998M604.696 390.988C605.612 389.688 606.335 388.957 606.864 388.792L607.639 388.142M604.712 390.998C605.169 390.349 605.578 389.842 605.938 389.477C606.299 389.112 606.609 388.891 606.87 388.81L606.87 388.811L606.876 388.806L607.637 388.167M607.639 388.142L607.625 388.154C607.629 388.158 607.633 388.163 607.637 388.167M607.639 388.142C608.871 389.465 610.299 390.486 611.886 391.259L611.874 391.274C610.292 390.503 608.868 389.485 607.637 388.167M607.639 388.142L607.65 388.156L607.637 388.167" fill="#111B33" stroke="#111B33" stroke-width="0.0370201"/>
</svg>
