<svg width="148" height="24" viewBox="0 0 148 24" fill="none" xmlns="http://www.w3.org/2000/svg">
<path d="M112.908 4.58623C112.798 4.94279 112.224 7.05754 111.614 9.29525C111.004 11.5207 110.406 13.6846 110.284 14.0903C110.161 14.4961 110.015 15.3321 109.966 15.9592C109.893 17.0043 109.905 17.1395 110.174 17.742C110.589 18.6641 111.138 19.2297 111.883 19.5739C112.493 19.8444 112.688 19.8567 115.898 19.9059L119.255 19.9551L119.609 18.8116C119.792 18.1723 119.975 17.5944 119.999 17.5084C120.036 17.41 119.316 17.3608 117.326 17.3239C114.897 17.287 114.556 17.2625 114.116 17.0411C113.42 16.6969 113.298 16.3772 113.359 15.1354C113.408 14.2748 113.652 13.2789 114.763 9.35672C115.508 6.75016 116.142 4.47557 116.191 4.27885L116.277 3.94689H114.678H113.091L112.908 4.58623Z" fill="#5086EC"/>
<path d="M34.3015 11.9393C33.1176 16.2303 32.1533 19.7836 32.1533 19.8327C32.1533 19.9803 40.7706 19.9434 41.6738 19.8082C42.931 19.5991 43.5779 19.3409 44.7374 18.5664C47.1786 16.9188 48.7775 14.0295 49.2536 10.4024C49.4977 8.45979 49.1925 6.62782 48.4724 5.77946C48.0208 5.25077 47.3861 4.84504 46.5561 4.53766C45.7871 4.26717 45.5796 4.25487 41.1123 4.1934L36.4619 4.13192L34.3015 11.9393ZM44.9449 7.30405C45.9824 8.02946 46.0801 9.25897 45.3355 12.1729C45.067 13.218 44.7374 14.3123 44.591 14.6073C44.1882 15.4311 43.1019 16.55 42.3085 16.9434C41.6128 17.2877 41.6006 17.2877 38.781 17.3245L35.9493 17.3614L36.1934 16.5254C36.3155 16.0704 36.9868 13.7098 37.6703 11.2877L38.9153 6.88602L41.686 6.92291L44.4445 6.95979L44.9449 7.30405Z" fill="#5086EC"/>
<path d="M3.16534 4.34116C3.14093 4.42722 2.56726 6.57886 1.88373 9.11165C1.20021 11.6444 0.504487 14.1649 0.321401 14.7059C-0.85035 18.3207 1.21242 20.251 6.00927 20.0174C10.2569 19.8084 12.7835 18.1731 13.9064 14.9395C14.2359 13.9805 16.8968 4.46411 16.8968 4.2428C16.8968 4.20591 16.1767 4.20591 15.2978 4.21821L13.6867 4.25509L12.2952 9.35755C11.5263 12.1608 10.7451 14.8043 10.5498 15.2223C9.74423 16.9928 8.68233 17.6198 6.52191 17.6321C5.41119 17.6444 5.15487 17.6076 4.65444 17.3616C3.92209 17.0051 3.7146 16.6116 3.7146 15.6035C3.7146 14.7059 3.78783 14.4354 5.35016 8.71821C5.99707 6.38214 6.52191 4.40263 6.52191 4.32886C6.52191 4.11985 3.23857 4.14444 3.16534 4.34116Z" fill="#5086EC"/>
<path d="M19.8848 4.34242C19.6773 4.98176 19.2135 6.62931 19.2135 6.75226C19.2135 6.86291 20.3242 6.8998 23.6564 6.92439L28.1115 6.96127L22.1428 12.0514L16.1864 17.1539L15.8081 18.4449C15.6006 19.1703 15.4297 19.7973 15.4297 19.8465C15.4297 19.8957 18.4323 19.9203 22.094 19.908L28.7706 19.8711L29.1123 18.7031C29.3076 18.0637 29.4663 17.4613 29.4663 17.3752C29.4663 17.2646 28.5142 17.2277 25.121 17.2277C22.6311 17.2277 20.8002 17.1785 20.8246 17.117C20.849 17.0555 23.4733 14.7441 26.659 11.99L32.4567 6.96127L32.774 5.97767C32.9571 5.43668 33.1402 4.80963 33.1768 4.58832L33.2745 4.19488H26.5979C21.3739 4.19488 19.9214 4.23176 19.8848 4.34242Z" fill="#5086EC"/>
<path d="M52.9776 6.24584C52.6603 7.38928 51.6716 10.9549 50.7806 14.1885L49.1572 20.0532H50.8416H52.5138L52.6481 19.6475C52.7091 19.4385 53.6856 15.9344 54.8085 11.877C55.9192 7.8319 56.859 4.43846 56.8957 4.35239C56.9445 4.22944 56.5905 4.19256 55.2479 4.19256H53.5391L52.9776 6.24584Z" fill="#5086EC"/>
<path d="M76.5951 5.01633C76.4608 5.48354 75.4966 8.97535 74.4469 12.7868C73.3972 16.5983 72.5062 19.795 72.4695 19.8934C72.4207 20.0163 72.7381 20.0532 74.1173 20.0532H75.8261L76.3876 17.9876C76.7049 16.8565 77.6936 13.2909 78.5846 10.0573L80.208 4.19256H78.5236H76.8392L76.5951 5.01633Z" fill="#5086EC"/>
<path d="M81.7822 5.20075C81.6113 5.76633 81.4404 6.36879 81.3916 6.55321L81.3184 6.89748H83.8449C86.1885 6.89748 86.3593 6.90977 86.2983 7.10649C86.103 7.75813 82.8075 19.918 82.8075 19.9795C82.8075 20.0163 83.5642 20.0532 84.4919 20.0532H86.164L87.9461 13.4999L89.7281 6.95895L92.2791 6.92207L94.8423 6.89748L94.9888 6.36879C95.062 6.086 95.2329 5.48354 95.3672 5.01633L95.6113 4.19256H88.8493H82.0873L81.7822 5.20075Z" fill="#5086EC"/>
<path d="M96.5131 12.1229L90.9961 20.0532H92.6805H94.3771L95.6099 18.1475L96.8304 16.2417L100.285 16.2663L103.739 16.3032L103.824 17.2868C103.873 17.8278 103.946 18.6762 103.983 19.1557L104.068 20.0532H105.887C107.462 20.0532 107.706 20.0286 107.706 19.8565C107.706 19.7458 107.218 16.2172 106.607 11.9999C106.009 7.78272 105.509 4.30321 105.509 4.26633C105.509 4.22944 104.728 4.19256 103.776 4.19256H102.03L96.5131 12.1229ZM103.08 10.3155C103.251 11.9139 103.373 13.2663 103.348 13.3155C103.324 13.377 102.262 13.4139 100.98 13.4139C99.711 13.4139 98.6735 13.377 98.6735 13.3155C98.6735 13.168 102.64 7.29092 102.701 7.35239C102.738 7.37698 102.909 8.71715 103.08 10.3155Z" fill="#5086EC"/>
<path d="M64.2177 4.5576C61.6545 5.09859 59.9091 6.45104 58.3834 9.0576C56.8089 11.7502 56.1375 15.2912 56.8211 17.3199C57.1628 18.3404 57.9074 19.1642 58.9082 19.6314L59.6772 19.9879L64.6572 20.0248C67.3912 20.0494 69.6249 20.0371 69.6249 19.9879C69.6249 19.9265 71.9562 11.5289 72.1393 10.9142C72.2003 10.7174 71.9562 10.7051 68.2945 10.7051H64.3886L64.1323 11.5904C63.9858 12.0822 63.8272 12.6478 63.7539 12.8445C63.5342 13.5576 63.4732 13.533 65.7191 13.533C66.8664 13.533 67.794 13.5699 67.794 13.6191C67.794 13.6806 67.5743 14.5166 67.318 15.5002L66.8542 17.283H64.3642C61.9353 17.283 61.862 17.2707 61.325 16.9756C60.4828 16.5084 60.3119 16.0781 60.3973 14.5781C60.495 12.574 61.2151 10.3732 62.2892 8.8117C62.8019 8.08629 63.2535 7.68055 63.9492 7.36088C64.5473 7.09039 64.6694 7.07809 68.7949 7.04121L73.0425 7.00432L73.2866 6.11908C73.4331 5.62727 73.5918 5.074 73.665 4.87727C73.726 4.68055 73.7748 4.47154 73.7748 4.42236C73.7748 4.36088 71.8707 4.3117 69.5394 4.324C65.8899 4.324 65.1454 4.36088 64.2177 4.5576Z" fill="#5086EC"/>
<path d="M132.844 0.326229C127.705 1.69658 124 6.60332 124 11.9742C124.022 19.489 131.079 25.2799 138.335 23.7548C142.592 22.8707 145.988 19.9311 147.4 15.9969C148.061 14.1182 148.194 10.9133 147.708 9.03459C146.606 4.81302 143.231 1.38715 139.063 0.304126C137.475 -0.11582 134.41 -0.0937171 132.844 0.326229ZM137.343 7.3106C137.453 7.84106 138.335 14.2287 138.335 14.6044C138.335 14.8033 140.497 11.709 143.033 7.88527L143.739 6.82435H145.128H146.54L146.121 7.44322C145.9 7.79686 144.18 10.3165 142.305 13.0793L138.887 18.0966L137.563 18.0303L136.262 17.9861L135.667 14.5602C135.358 12.6815 135.027 10.6481 134.939 10.0734L134.785 9.01249L133.086 9.0788L131.41 9.1451L130.197 13.6098L129.006 18.0966H127.705C126.933 18.0966 126.426 18.0082 126.426 17.8535C126.426 17.7209 126.933 15.7758 127.529 13.5435C128.146 11.3111 128.631 9.1451 128.631 9.03459C128.631 8.90198 127.926 9.03459 126.977 9.03459C125.169 9.03459 125.169 9.03459 125.566 7.64214L125.786 6.82435H131.499H137.233L137.343 7.3106Z" fill="#5086EC"/>
</svg>
