<svg width="384" height="83" viewBox="0 0 384 83" fill="none" xmlns="http://www.w3.org/2000/svg">
<path d="M34.5337 82.3561L0 2.14355H15.39L41.6657 60.2415L66.0645 2.14355H81.4545L47.2962 82.3561H34.5337Z" fill="#FF5722"/>
<ellipse cx="176.047" cy="40.7504" rx="18.0176" ry="17.9916" fill="#FF5722"/>
<path fill-rule="evenodd" clip-rule="evenodd" d="M124.564 1.02051C102.414 1.02051 84.4575 18.9767 84.4575 41.1268C84.4575 63.2769 102.414 81.2331 124.564 81.2331H177.231C199.381 81.2331 217.337 63.2769 217.337 41.1268C217.337 18.9767 199.381 1.02051 177.231 1.02051H124.564ZM126.081 12.2644C110.142 12.2644 97.22 25.1862 97.22 41.126C97.22 57.0657 110.142 69.9875 126.082 69.9875H175.713C191.653 69.9875 204.575 57.0657 204.575 41.126C204.575 25.1862 191.653 12.2644 175.713 12.2644H126.081Z" fill="#FF5722"/>
<path d="M248.117 40.3755L220.715 1.76855H237.982L257.877 28.756L276.645 1.76855H293.537L266.886 40.3755L295.413 81.2315H277.771L256.375 51.6203L235.73 81.2315H218.839L248.117 40.3755Z" fill="#FF5722"/>
<path fill-rule="evenodd" clip-rule="evenodd" d="M383.249 47.8726V47.7464H383.529C383.839 45.7095 384 43.6236 384 41.5003C384 18.7292 365.514 0.269531 342.71 0.269531C319.906 0.269531 301.419 18.7292 301.419 41.5003C301.419 64.2714 319.906 82.7311 342.71 82.7311C360.312 82.7311 375.341 71.7328 381.282 56.2428H380.997V56.1188H365.982C363.73 60.9915 349.466 74.1104 334.076 68.488C321.764 63.9901 317.435 52.8703 316.809 47.8726H383.249ZM317.185 34.0031H367.859C366.233 27.5062 359.601 14.4373 346.088 14.1374C329.197 13.7626 320.938 20.5094 317.185 34.0031Z" fill="#FF5722"/>
</svg>
